<?xml version="1.0" encoding="UTF-8"?>
<svg width="28px" height="23px" viewBox="0 0 28 23" version="1.1" xmlns="http://www.w3.org/2000/svg" xmlns:xlink="http://www.w3.org/1999/xlink">
    <!-- Generator: Sketch 51.1 (57501) - http://www.bohemiancoding.com/sketch -->
    <title>gmail (1)</title>
    <desc>Created with Sketch.</desc>
    <defs>
        <filter x="-1.7%" y="-2.7%" width="103.3%" height="107.5%" filterUnits="objectBoundingBox" id="filter-1">
            <feOffset dx="0" dy="2" in="SourceAlpha" result="shadowOffsetOuter1"></feOffset>
            <feGaussianBlur stdDeviation="2" in="shadowOffsetOuter1" result="shadowBlurOuter1"></feGaussianBlur>
            <feColorMatrix values="0 0 0 0 0   0 0 0 0 0   0 0 0 0 0  0 0 0 0.5 0" type="matrix" in="shadowBlurOuter1" result="shadowMatrixOuter1"></feColorMatrix>
            <feMerge>
                <feMergeNode in="shadowMatrixOuter1"></feMergeNode>
                <feMergeNode in="SourceGraphic"></feMergeNode>
            </feMerge>
        </filter>
    </defs>
    <g id="Page-1" stroke="none" stroke-width="1" fill="none" fill-rule="evenodd">
        <g id="MyProfile/1440-referral-step2-email" transform="translate(-470.000000, -960.000000)" fill-rule="nonzero">
            <g id="BLOC-02" transform="translate(0.000000, 597.000000)">
                <g id="Choix" filter="url(#filter-1)" transform="translate(385.000000, 288.000000)">
                    <g id="gmail">
                        <g id="icon" transform="translate(67.000000, 52.000000)">
                            <g id="gmail-(1)" transform="translate(22.000000, 25.000000)">
                                <rect id="Rectangle-path" fill="#B82D2A" x="2.5" y="0" width="15" height="15"></rect>
                                <polygon id="Shape" fill="#941A18" points="10 9.0775 17.5 15 17.5 3.3075"></polygon>
                                <path d="M18.125,0 L17.5,0 L10,5.9225 L2.5,0 L1.875,0 C0.84,0 0,0.84 0,1.875 L0,13.125 C0,14.16 0.84,15 1.875,15 L2.5,15 L2.5,3.3075 L10,9.07625 L17.5,3.30625 L17.5,15 L18.125,15 C19.16,15 20,14.16 20,13.125 L20,1.875 C20,0.84 19.16,0 18.125,0 Z" id="Shape" fill="#FFFFFF"></path>
                            </g>
                        </g>
                    </g>
                </g>
            </g>
        </g>
    </g>
</svg>