<?xml version="1.0" encoding="utf-8"?>
<!-- Generator: Adobe Illustrator 22.1.0, SVG Export Plug-In . SVG Version: 6.00 Build 0)  -->
<svg version="1.2" baseProfile="tiny" id="Calque_1"
	 xmlns="http://www.w3.org/2000/svg" xmlns:xlink="http://www.w3.org/1999/xlink" x="0px" y="0px" viewBox="0 0 383.8 235.3"
	 xml:space="preserve">
<g id="Sim_card">
	<g>
		<path fill="#FFC6C6" d="M376.2,120c-1.1,0.2-2.2,0.4-3.2,0.7c-0.2,2.8-0.3,6-0.5,9.3c-1.1,0.8-2.3,1.5-3.3,1.9
			c-2.8,1.2-10.3,1.6-9.9,4c0.2,1.4,1.9,2,4,2.2c-0.1,0-0.1,0-0.2,0.1c-2.7,0.9-5.1,1.8-4.9,3.5c0.1,1.3,2,2.3,6.3,2.6
			c-2.6,0.5-5.2,1.2-5.2,3.1c0,1.3,2,2.1,4.4,2.5c-1.7,0.7-3.1,1.6-3.2,2.8c-0.1,2.2,4.5,3.3,11,2.3c0,0,0,0,0,0
			c3.2-0.5,6.3-1.1,6.9-4.2c0.3-1.5-0.2-2.8-0.5-3.7c0.6-0.8,0.9-1.8,1-2.8c0.1-1.4-0.3-2.6-0.7-3.5c1.1-1.4,1.6-2.8,1.6-3.5
			c0-1.3-0.3-2.3-0.6-3.2c0.4-1,0.5-2.2,0.5-3.3c0-1.8-0.5-3.9-1.8-4c1.2-0.6,2.6-1.3,3.8-2.4c2.4-2.2,3-5,1.3-6.3
			C381,116.9,379.3,119.4,376.2,120z"/>
		<path fill="#560628" d="M279.6,192.8c1.2,0.9,2.1,2.4,2.3,5.2c0.2,2.4-0.4,4.3-1.7,5.7c-0.3,0.3-0.7,0.6-1.1,0.9
			c0.9-0.4,1.6-0.8,2.2-1.4c1.2-1.2,1.7-2.9,1.5-5.1C282.5,194.9,281.4,193.4,279.6,192.8z"/>
		<path fill="#560628" d="M244.8,120.7c-4.8,0-7.8,3.5-7.8,8.9c0,2.3,0.6,9.8,8.6,10.2c2.4,0.1,4.3-0.5,5.6-1.8
			c2.2-2.1,2.5-5.4,2.5-7.2C253.7,124.3,250.5,120.7,244.8,120.7z"/>
		<path fill="#560628" d="M279.8,203.4c1.2-1.2,1.7-3,1.6-5.2c-0.3-4-1.9-5.3-4.2-5.6c1.4,0.8,2.3,2.4,2.5,5.5
			c0.2,2.5-0.4,4.5-1.8,5.9c-0.5,0.5-1,0.9-1.7,1.2C277.7,204.8,278.9,204.2,279.8,203.4z"/>
		<path fill="#560628" d="M244.8,120.2c2,0,3.7,0.4,5.1,1.2c-2.2-1.6-5.2-2.3-9-0.9c-1.1,0.8-2.1,1.9-2.9,3.2
			C239.5,121.5,241.9,120.2,244.8,120.2z"/>
		<path fill="#560628" d="M255.3,129.2c-0.3-0.9-0.6-1.7-1-2.6c-0.4-0.8-0.9-1.6-1.5-2.4c1,1.7,1.5,3.9,1.5,6.6
			c0,1.9-0.3,5.4-2.7,7.6c-1.4,1.3-3.2,2-5.5,2c-0.2,0-0.4,0-0.6,0c-5.7-0.3-9.1-4.3-9.1-10.8c0-1.7,0.3-3.3,0.9-4.6
			c-0.3,0.7-0.6,1.5-0.9,2.2c-0.3,1-0.8,2.9-0.8,5c0.2,0.6,0.5,1.3,0.9,2c2,3.8,4.3,6.3,7,7.4c1.7,0.7,3.5,0.9,5.4,0.4
			c3.2-1.6,4.9-5.5,5.5-7.7C254.9,132.4,255.2,130.8,255.3,129.2z"/>
		<path fill="#560628" d="M262,204.2c1,0.1,2.2,0.2,3.4,0.4c2.4,0.3,5.2,0.6,8,0.8c1.8-0.2,3.2-0.8,4.2-1.8c1.2-1.2,1.8-3.1,1.6-5.4
			c-0.3-4.2-1.8-5.4-4.1-5.6c-2.3,0.2-4.6,1.3-6.9,2.4c-1.7,0.8-3.3,1.6-4.8,1.9c-0.4,0.1-0.9,0.1-1.4,0.2V204.2z"/>
		<path fill="#560628" d="M342.2,156.3c1.7,0,3.1-1.4,3.1-3.1v-16.6c0-1.7-1.4-3.1-3.1-3.1c-1.7,0-3.1,1.4-3.1,3.1v16.6
			C339.1,154.9,340.5,156.3,342.2,156.3z"/>
		<path fill="#560628" d="M251.6,196.5c-0.7-0.2-1.4-0.5-2.3-0.9c-1.8-0.8-4.1-1.8-6.8-2c-2,0.1-3.5,0.7-4.5,1.6
			c-1,0.9-1.5,2.3-1.5,4c0,2.4,0.5,4.1,1.5,5.1c1,1,2.4,1.3,3.9,1.4c2.4-0.1,3.8-0.5,5.5-0.9c0.8-0.2,1.7-0.5,2.7-0.7
			c1.3-0.2,2.5-0.3,3.7-0.4v-6.9C253,196.8,252.2,196.7,251.6,196.5z"/>
		<path fill="#560628" d="M238.8,194c-1.1,0.3-2,0.8-2.6,1.4c-1,0.9-1.4,2.2-1.5,3.9c0,2.3,0.5,3.9,1.6,5c0.7,0.6,1.5,1,2.4,1.2
			c-0.3-0.2-0.6-0.4-0.9-0.7c-1.2-1.2-1.7-3-1.7-5.5c0-1.9,0.6-3.4,1.7-4.4C238,194.5,238.4,194.2,238.8,194z"/>
		<path fill="#560628" d="M235.8,204.6c-1.2-1.2-1.7-2.9-1.7-5.4c0-1.8,0.6-3.3,1.6-4.3c0.2-0.2,0.4-0.4,0.7-0.6
			c-0.7,0.3-1.2,0.6-1.7,1.1c-0.9,0.9-1.4,2.2-1.4,3.8c0,2.2,0.5,3.8,1.5,4.9c0.4,0.4,1,0.8,1.5,1C236.2,205,236,204.8,235.8,204.6z
			"/>
		<path fill="#560628" d="M243.2,142.1c-2.8-1.2-5.2-3.8-7.3-7.7c-0.1-0.2-0.2-0.4-0.3-0.6c0.3,3.2,1.9,6.6,6.5,8.3
			c1.2,0.4,2.3,0.6,3.4,0.7C244.8,142.6,244,142.4,243.2,142.1z"/>
		<path fill="#560628" d="M237.5,124.7c0,0,0,0.1-0.1,0.1C237.4,124.8,237.4,124.7,237.5,124.7z"/>
		<path fill="#560628" d="M255.4,132.7c-0.1,0.6-0.3,1.2-0.5,1.8c-0.6,1.8-1.8,4.8-4,6.8c0.1-0.1,0.2-0.1,0.4-0.2
			c2-1,3.4-2.7,4.1-4.8V132.7z"/>
		<path fill="#560628" d="M360.5,152.7c0-1.2,1.5-2.1,3.2-2.8c-2.5-0.4-4.4-1.2-4.4-2.5c0-1.9,2.6-2.6,5.2-3.1
			c-4.3-0.3-6.2-1.3-6.3-2.6c-0.2-1.7,2.3-2.6,4.9-3.5c0.1,0,0.1,0,0.2-0.1c-2.1-0.2-3.8-0.8-4-2.2c-0.3-2.4,7.1-2.8,9.9-4
			c1-0.4,2.1-1.2,3.3-1.9c0.2-3.2,0.4-6.5,0.5-9.3c0.2-4.3,0.4-7.3,0.4-7.3s-25.2-0.6-52.7-2c-23.3-1.2-52.9-7-62.1-10
			c-9.2-2.9-31.8-7.1-43.3-9.4c-11.6-2.4-34.1-5.1-34.1-5.1s1.2-1.8,1.8-4.5c0.6-2.7,2.2-7.5,2.2-7.5s-11.4-4.3-22.7-8
			c-7.1-2.3-13.9-4.5-17.9-5.8c-0.5,3.1-1.3,6.3-2.5,9.7c-2.6,7.4-5.2,12.6-9,16.2l1.3,9.9c0,0,2.8-0.1,4.5,0.1
			c1.8,0.2,4.3,0.4,6.3,0.7c0.5,0.1,1,0.2,1.5,0.3c1.6,0.3,6,1.3,10.4,2.4c2.1,0.5,4.2,1,6,1.4c3.3,0.8,5.7,1.3,5.7,1.3
			s0,0.3,0.1,0.8c0,0.4,0.1,0.9,0.1,1.5c0,0.8,0.1,1.7,0.1,2.8c0,0.6,0,1.2,0,1.8c0,0.9,0,1.9,0,2.9c0,0.6,0,1.3,0,1.9
			c0,1,0,2.1-0.1,3.2c0,0.7-0.1,1.4-0.1,2.1c-0.1,1.1-0.2,2.1-0.3,3.1c-0.1,0.7-0.2,1.5-0.3,2.2c-0.1,0.8-0.2,1.6-0.4,2.4
			c0,0.2-0.1,0.4-0.1,0.6c-0.2,0.7-0.4,1.4-0.6,2.1c-0.3,1-0.7,1.9-1.2,2.8c-0.3,0.7-0.7,1.4-1.1,2.1c-0.6,0.9-1.2,1.8-1.8,2.7
			c-0.6,0.8-1.2,1.6-1.8,2.3c-0.9,1-1.7,1.9-2.5,2.7c-1.1,1.1-2.1,2-2.6,2.5c-0.4,0.3-0.6,0.5-0.6,0.5s0.1,0.6,0.1,1.7
			c0.1,0.6,0.1,1.4,0.2,2.3c0.1,0.7,0.1,1.4,0.2,2.2c0.1,0.8,0.1,1.6,0.2,2.5c0.1,0.8,0.1,1.6,0.2,2.4c0.1,0.9,0.1,1.8,0.2,2.7
			c0.1,0.8,0.1,1.6,0.2,2.5c0.1,1,0.2,2,0.2,3c0.1,0.8,0.1,1.7,0.2,2.6c0.1,1,0.2,2,0.2,3c0.1,0.9,0.1,1.8,0.2,2.7
			c0.1,0.9,0.1,1.8,0.2,2.8c0.1,0.8,0.1,1.6,0.2,2.5c0.1,0.9,0.1,1.7,0.2,2.6c0.1,0.7,0.1,1.4,0.2,2.1c0.1,0.8,0.1,1.6,0.2,2.4
			c0,0.6,0.1,1.2,0.1,1.9c0.1,0.7,0.1,1.4,0.2,2.2c0,0.6,0.1,1.2,0.1,1.8c0.1,0.7,0.1,1.5,0.2,2.2c0,0.6,0.1,1.2,0.1,1.7
			c0.1,0.8,0.1,1.5,0.1,2.2c0,0.6,0.1,1.3,0.1,1.9c0,0.8,0.1,1.5,0.1,2.2c0,0.6,0.1,1.2,0.1,1.7c0,0.7,0.1,1.3,0.1,1.9
			c0,0.1,0,0.2,0,0.3c0,0.6,0.1,1.1,0.1,1.7c0,0.7,0.1,1.4,0.1,2.2c0,0.6,0.1,1.2,0.1,1.8c0,0.8,0.1,1.6,0.1,2.4
			c0,0.6,0.1,1.2,0.1,1.9c0.1,0.9,0.1,1.8,0.2,2.7c0,0.7,0.1,1.3,0.1,2c0.1,1,0.2,2,0.2,3.1c0.1,0.8,0.1,1.6,0.2,2.3
			c0.1,1.1,0.2,2.3,0.3,3.4c0.1,0.9,0.1,1.8,0.2,2.7c0.1,1.2,0.2,2.4,0.3,3.6h198.2c0-0.1,0-0.2,0-0.3c0-6.7,3.1-36.9,4.1-41.2
			c1-4.3,4.5-17.1,5.7-24.1c0.7-4,1.1-9.6,1.4-14.7c0,0,0,0,0,0C365,156,360.4,154.8,360.5,152.7z M337.8,136.6c0-2.4,2-4.4,4.4-4.4
			c2.4,0,4.4,2,4.4,4.4v16.6c0,1.8-1.1,3.3-2.6,4c-0.1,0.1-0.5,0.3-0.8,0.6c-0.2,0.3-0.3,0.6-0.4,0.9v7.2c0,0.4-0.3,0.6-0.6,0.6
			c-0.4,0-0.6-0.3-0.6-0.6v-7.1c0,0,0,0,0,0c0-0.2-0.1-0.6-0.4-0.9c-0.3-0.4-0.8-0.7-0.8-0.7h0c-1.5-0.7-2.6-2.2-2.6-4V136.6z
			 M283.4,198.1c0.2,2.3-0.4,4.2-1.7,5.5c-1.6,1.6-4.1,2.4-7.4,2.3c-0.4,0-0.9,0-1.3,0c0,0,0,0-0.1,0c-0.4,0-0.9,0-1.4,0
			c-2.6-0.1-5.1-0.5-7.4-0.8c-0.8-0.1-1.5-0.2-2.1-0.3v0.5c0,0.5-0.4,0.8-0.8,0.8h-6.4c-0.5,0-0.8-0.4-0.8-0.8v-1
			c-0.9,0-1.8,0.1-2.7,0.3c-0.9,0.2-1.6,0.4-2.3,0.6c-1.4,0.4-2.7,0.9-5.1,0.9c-0.3,0-0.6,0-0.9,0c-0.2,0-0.4,0-0.6,0
			c-0.2,0-0.5,0-0.7,0c-0.1,0-0.3,0-0.4,0c-0.2,0-0.4,0-0.5,0c-2.5,0-4.8-0.3-6.3-1.8c-1.2-1.2-1.7-2.9-1.7-5.3
			c0-1.8,0.6-3.2,1.6-4.2c1.5-1.5,4-2.2,7.7-2.1c0,0,0.1,0,0.1,0c0.3,0,0.5,0,0.8,0c0,0,0.1,0,0.1,0c0.3,0,0.7,0,1.1,0
			c2.7,0.1,4.8,1.2,6.5,2.1c0.7,0.4,1.3,0.7,1.9,0.9c0.3,0.1,0.9,0.2,1.5,0.3v-0.2c0-0.5,0.4-0.8,0.8-0.8h6.4c0.5,0,0.8,0.4,0.8,0.8
			v0.3c0.1,0,0.3,0,0.4-0.1c1.2-0.2,2.5-1,4-1.8c2-1.1,4.2-2.4,6.4-2.5c0.6,0,1.2,0,1.8,0c0.5,0,0.9,0,1.4,0
			C279.8,191.8,282.9,192.4,283.4,198.1z M256.3,135c-0.1,0.5-0.2,0.9-0.4,1.4v9.4h1.9c0.5,0,1,0.4,1,1v4.3v4h-0.8v1.9h-4.3v-1.9
			H253v-3.9v-4.5c0-0.5,0.4-1,1-1h1.4v-8c-0.8,1.6-2.1,2.9-3.9,3.8c-0.8,0.4-1.7,0.7-2.5,0.9c-1.1,0.5-2.2,0.8-3.4,0.8
			c-1.1,0-2.4-0.2-3.6-0.7c-3.8-1.4-6.1-4.2-6.8-7.9v35h0.7c0.5,0,0.8,0.4,0.8,0.8v4.6c0,0.4-0.3,0.7-0.7,0.8v1.6h-2.2v-1.6
			c-0.4-0.1-0.7-0.4-0.7-0.8v-4.6c0-0.5,0.4-0.8,0.8-0.8h0.7v-38.8c-0.6-2.1-0.6-3.9,0-5.5c0.8-2.2,2.5-3.9,5.2-5.1
			c0.3-0.1,0.5-0.2,0.8-0.3c2.3-1.6,5.1-2.1,8-1.2c3.1,1,5.3,2.7,6.4,5.3c0.7,1.5,1,3.2,0.9,5.1C256.5,131.1,256.7,133.2,256.3,135z
			 M182,142.3c-3.1-10.5-4-23.1-1.6-26.4c2.4-3.2,4.3-4.9,4.5-6.2c0.2-1.3,0.8-4.3,0.8-4.3l2.4-0.3l2.7-0.3l-1,5.3
			c0,0,4.2,3,5.9,10.8c1.8,7.8,1.3,13.8,4.1,20.2c2.7,6.5,8.5,11.2,11.7,14c3.3,2.7,2.7,3.4,5.1,5.5c2.3,2.1,4.2,2.4,4.2,2.4l-1,2.9
			l-0.9,2.5c0,0-2.7,0-5.3,0.7c-2.6,0.7-7.9,1.2-12.6-1.4S185,152.8,182,142.3z M181,196.6v-0.9h0.1V185c0-0.5,0.4-0.9,0.9-0.9h31.2
			c0.5,0,0.9,0.4,0.9,0.9v21.3c0,0.5-0.4,0.9-0.9,0.9H182c-0.5,0-0.9-0.4-0.9-0.9L181,196.6L181,196.6z M286.4,172.5
			c-1.8-1.2-2.8-3.1-3.5-5.6c-1.9-6.9,3.6-10.3,4.6-12.5c-0.1-2.5-2.3-2.8-2.3-2.8s-2.9,0.2-4.2,0c-1.3-0.3-2.1-2.5-2-2.9
			c0.1-0.4,2.8-0.9,3.5-1.8c0.7-0.8-2-9.7,7.5-11.7c3.8-0.8,8.6,1.6,9.4,5.2c0.9,3.7-2.2,6.7-1.5,9.8c0.7,3.4,4.4,1.7,8,1.5
			c5.3-0.2,5.5,1.3,11.3-0.9c3.3-1.3,5.4-4.1,5.4-4.1s2.7,11.3-4,19c-2.3,2.6-5.6,4.8-10.5,5.9C295.6,174.6,289.6,174.6,286.4,172.5
			z M347,209.8l-5-2.6c0,0-3.5-1.3-4.1,0.1c-0.8,1.9,1.9,3.9,1.9,3.9s4.4,2.5,4.9,2.9c0.5,0.4-0.4,0.8-0.8,0.9s-3.7,1.3-6.5,0.2
			c-2.8-1.1-4.3-3.2-4.5-4s-0.3-2.7-0.3-2.7s-18.2-9.5-18.9-9.8s-2.2-0.6-2.8-0.3c-0.6,0.3-3.4,0.7-4.3,0.5
			c-2.4-0.5-4.2-1.6-4.9-2.4c-1.5-1.7-3-5.1-3-5.5c0-0.4,0.1-0.5,0.5-0.2c1.1,0.6,4.6,2.2,5.6,2.3c1,0.1,2.8,0,3.4-1.1
			c0.6-1-0.4-2.5-1-3.3s-4.5-3.1-5.1-3.3c-0.6-0.3,1.6-1.4,3.1-1.3c1.5,0.1,4.8,0.8,6.1,1.6c1.3,0.8,3.3,3.6,3,6.6
			c0.3,1.1,2,1.7,2.5,1.9c0.6,0.2,16.1,7.4,16.9,7.7s1.6,0.5,1.6,0.5s3.1-1,4.9-1.1c1.7,0,3,0.7,4.2,1.3c1.2,0.6,2.5,1.9,2.8,3.3
			s0.4,2.7,0.5,3.4C347.5,209.2,347.5,210.1,347,209.8z"/>
		<path fill="#560628" d="M235.1,130.5c0.1-1.1,0.4-2.3,0.8-3.5c0.7-2.3,1.8-4.2,3.2-5.7c-2,1.1-3.3,2.5-3.9,4.2
			C234.6,127,234.6,128.7,235.1,130.5L235.1,130.5z"/>
		<path fill="#560628" d="M254.8,126.4c0.2,0.3,0.3,0.7,0.5,1c-0.1-1.1-0.4-2.2-0.8-3.1c-1.1-2.4-3.1-4-6.1-5
			c-1-0.3-1.9-0.4-2.7-0.4c-0.8,0-1.6,0.1-2.4,0.4C248,118.6,252,121.1,254.8,126.4z"/>
		<path fill="#390A17" d="M73.8,222.2c-1.6-8.6-2.2-16.9-3.5-23.3c-1.4-6.5-4.1-15.1-6.9-21.2c-2.7-6.1-7.8-24.1-10.2-31.4
			S49.4,134.5,51,132c1.6-2.5,11.2-12.4,11.2-12.4s-2.9-8.8-4.1-12.6c-0.3-0.9-0.9-2.9-1.8-5.3c-5.8,3-13.8,7.2-19.2,10.4
			c-7.1,4.1-9.3,5.3-9.9,5.7c0,0,0,0,0,0c0,0-4.2,1.7-8.1,9c-1.6,3.1-7.7,28.4-11.8,48.3c-4.1,19.9-6.8,42.6-7.2,49.9
			c-0.2,3.6-0.1,7,0.3,10.1h76C75.4,230.4,74.4,225.5,73.8,222.2z"/>
		<path fill="#560628" d="M81.9,230.9c0.1-0.7,0.1-1.5,0.1-2.1c0.1-1.1,0.1-2.1,0.1-3c0-0.8,0-1.5,0-2.2c0-0.6-0.1-1.1-0.1-1.6
			c-0.1-0.4-0.1-0.9-0.2-1.5c-0.1-0.6-0.1-1.3-0.1-2.1c-0.1-1-0.1-2.1-0.1-3.3c0-0.7,0-1.5-0.1-2.2c0-1.1-0.1-2.3-0.1-3.5
			c0-0.8,0-1.6,0-2.5c0-1.3,0-2.6-0.1-3.9c0-0.9,0-1.7,0-2.6c0-1.5-0.1-3-0.1-4.4c0-1,0-2-0.1-2.9c0-2-0.1-3.9-0.2-5.7
			c0-1.3-0.1-2.5-0.2-3.6c-0.1-1.9-0.2-3.6-0.4-5c-0.1-0.8-0.2-1.5-0.3-2c0-0.1,0-0.2-0.1-0.3c-0.2-0.9-0.3-2.1-0.4-3.7
			c0-0.6-0.1-1.2-0.1-1.9c-0.1-1-0.1-2-0.1-3.1c0-0.6,0-1.1-0.1-1.7c0-1-0.1-1.9-0.1-3c0-0.6,0-1.1,0-1.7c0-0.9,0-1.9,0-2.9
			c0-0.6,0-1.1,0-1.7c0-0.9,0-1.9,0-2.9c0-0.6,0-1.1,0-1.7c0-1,0-1.9,0-2.9c0-0.6,0-1.2,0-1.8c0-1,0-1.9,0-2.9c0-0.6,0-1.2,0-1.8
			c0-0.9,0-1.8,0-2.7c0-0.6,0-1.3,0-1.9c0-0.9,0-1.7,0-2.5c0-0.7,0-1.3,0-2c0-0.8,0-1.6,0-2.4c0-0.7,0-1.4,0-2c0-0.8,0-1.5,0-2.3
			c0-0.7,0-1.3,0-1.9c0-0.8,0-1.5,0-2.2c0-0.1,0-0.2,0-0.4c0-0.6,0-1.1,0-1.7c0-0.7,0-1.3,0.1-2c0-0.7,0.1-1.5,0.1-2.2
			c0-0.6,0.1-1.3,0.2-1.9c0.1-0.8,0.2-1.6,0.3-2.4c0.1-0.6,0.2-1.3,0.3-1.9c0.1-0.8,0.2-1.7,0.4-2.4c0.1-0.7,0.2-1.3,0.3-2
			c0.2-0.9,0.3-1.8,0.5-2.6c0.1-0.7,0.3-1.4,0.4-2c0.2-1.1,0.5-2,0.6-2.7c0.3-1.3,0.5-2,0.5-2s0.1,0,0.3-0.1
			c0.6-0.1,1.9-0.4,3.4-0.8c1.9-0.4,5.8-0.7,6.1-0.9c0.5-0.4,0.6-10.5,0.6-12.5c-3.2-4.1-4.8-7.3-6-12.8c-0.6-2.6-1.1-4-1.4-6.6
			c-0.6,2-1.3,3.8-2,4.5c-1.8,1.8-7.5,3.2-7.5,3.2s3-3.3,4.2-8.6C74.8,65,67.7,68.7,63,72c-9,6.3-13.1,11.2-13.1,11.2
			s4,11.4,6.5,18.7c0.8,2.4,1.5,4.3,1.8,5.3c1.2,3.7,4.1,12.6,4.1,12.6S52.6,129.4,51,132c-1.6,2.5-0.2,7.1,2.2,14.3
			s7.5,25.3,10.2,31.4c2.7,6.1,5.5,14.7,6.9,21.2c1.4,6.5,2,14.7,3.5,23.3c0.6,3.3,1.6,8.2,2.7,13.1h5.1c0-0.5,0.1-1,0.1-1.5
			C81.8,232.8,81.9,231.8,81.9,230.9z"/>
		<path fill="#D3D3CB" d="M139.9,148.7c-8.7,0.3-17.3-0.5-25.9-1.4c-8.4-0.9-17-1.3-25.5-1.9c-3.2-0.2-6.4-0.5-9.6-0.7
			c0,0.9,0,1.9,0,2.9c3.1,0.1,6.2,0.2,9.3,0.4c8.7,0.6,17.1,0.8,25.3,1.8c8.2,1,16.9,1.8,25.7,1.4c5.5-0.2,10.9-0.7,16.3-1.2
			c-0.1-0.9-0.1-1.7-0.2-2.3C150.3,148.1,145.2,148.5,139.9,148.7z"/>
		<path fill="#D3D3CB" d="M145.4,184.2c-3.9-0.8-8-1.5-12.2-2c-4.1-0.5-8.4-1.1-12.7-1.4c-4.5-0.3-9.1-0.8-13.5-0.6
			c-8.6,0.4-16.4,2-22.8,5.4c-1.1,0.6-2.2,1.2-3.2,1.7c0.1,1.8,0.1,3.7,0.2,5.7c1.5-0.7,3-1.4,4.5-2.2c3.1-1.7,6-3.4,9.4-4.8
			c3.5-1.4,7.1-2.2,11.5-2.7c4.4-0.5,8.8-0.2,13.4-0.1c4.3,0.1,8.7,0.6,12.9,1.1c9.2,1.1,17.9,3.1,26.1,5.5
			c-0.1-0.7-0.1-1.4-0.2-2.2C154.4,186.3,149.9,185.1,145.4,184.2z"/>
		<path fill="#D3D3CB" d="M140.2,140.2c-8.8,0.3-17.8-0.6-26.9-1.1c-4.5-0.3-8.9-0.4-13.2-0.9c-4.2-0.4-8.4-1-12.6-1.5
			c-2.8-0.4-5.6-0.7-8.4-1.1c0,0.8,0,1.7,0,2.5c7.1,0.7,14.2,1.5,21.5,2.3c4.3,0.5,8.7,0.6,13.1,0.9c4.4,0.3,8.8,0.4,13.1,0.8
			c12.1,1,23.4-0.4,34.3-1.9c0.6-0.7,1.2-1.5,1.8-2.3C155.6,139,148.1,139.9,140.2,140.2z"/>
		<path fill="#D3D3CB" d="M140.3,144.5c-8.7,0.2-17.6-0.5-26.4-1.3c-4.3-0.4-8.7-0.5-13-0.9c-4.3-0.4-8.5-0.7-12.8-1.1
			c-3-0.3-6-0.6-9.1-1c0,0.9,0,1.8,0,2.7c3.2,0.2,6.4,0.5,9.6,0.8c4.2,0.4,8.5,0.7,12.8,1c4.3,0.4,8.6,0.5,12.9,0.9
			c8.6,0.8,17.4,1.7,25.9,1.3c5.3-0.3,10.6-0.8,15.8-1.4c0.6-0.5,1.5-1.3,2.6-2.5C152.6,143.7,146.5,144.3,140.3,144.5z"/>
		<path fill="#D3D3CB" d="M147.3,162.1c-4.5,0-9-0.2-13.4-0.2c-9,0-17.1-1-25.1-2.2c-4-0.6-8-1.2-12.2-1.4
			c-4.3-0.3-8.9-0.3-13.5-0.1c-1.3,0.1-2.7,0.1-4,0.2c0,1,0,1.9,0,2.9c0.9-0.1,1.7-0.1,2.6-0.1c4.4-0.2,8.9-0.5,13.3-0.3
			c4.3,0.2,8.4,0.7,12.4,1.3c8.2,1.3,16.5,1.8,25.1,2.2c7.9,0.4,16.4,0.3,24.4,0.8c-0.1-1-0.2-2-0.2-3
			C153.6,162.2,150.5,162.1,147.3,162.1z"/>
		<path fill="#D3D3CB" d="M139.7,136.1c-9.2,0.4-18.2-0.4-27.4-0.9c-9-0.4-17.5-1.5-25.6-2.7c-2.5-0.4-5.1-0.8-7.6-1.2
			c0,0.8,0,1.6,0,2.4c2.6,0.4,5.2,0.8,7.7,1.1c8.2,1.1,16.7,2,25.6,2.4c9.1,0.4,18.2,1.3,27.1,0.9c4.6-0.2,8.9-0.5,13.1-1.1
			c4.1-0.6,8.1-1.2,12.1-1.8c0.4-0.7,0.8-1.4,1.1-2.1C157.4,134.6,148.9,135.8,139.7,136.1z"/>
		<path fill="#D3D3CB" d="M144.3,176.1c-4-0.6-8.2-1-12.5-1.5c-4.2-0.5-8.5-0.8-12.7-1.3c-8.4-1-16.6-2.4-25.6-2.1
			c-4.3,0.2-8.6,0.6-12.8,1.3c-0.4,0.1-0.8,0.1-1.1,0.2c0.1,1.5,0.3,2.7,0.4,3.7c8.1-1.9,17.3-2.7,26.3-2.1
			c4.2,0.3,8.4,0.9,12.6,1.4c4.3,0.4,8.5,0.9,12.8,1.3c4.1,0.3,8.2,1.1,12.3,1.6c4,0.5,8,1.3,11.8,2.2c0.8,0.2,1.7,0.4,2.5,0.6
			c-0.1-0.8-0.1-1.7-0.2-2.6C153.6,177.7,149,176.8,144.3,176.1z"/>
		<path fill="#D3D3CB" d="M132.6,178.5c-4.1-0.5-8.4-0.9-12.7-1.4c-4.3-0.4-8.6-1-12.9-1.2c-8.8-0.5-17.4,0.2-25.3,2.4
			c-0.5,0.1-0.9,0.3-1.4,0.4c0.2,1.4,0.3,3.1,0.4,5c0.7-0.4,1.5-0.7,2.2-1c7-2.9,15.2-4.2,23.8-4.2c4.2,0,8.7,0.4,13.1,0.9
			c4.3,0.5,8.7,0.8,12.7,1.4c8.3,1.2,16.2,2.5,23.8,4.4c0.8,0.2,1.5,0.4,2.3,0.6c-0.1-0.8-0.1-1.6-0.2-2.4
			C150.2,181.2,141.7,179.6,132.6,178.5z"/>
		<path fill="#D3D3CB" d="M145.7,167c-8.6-0.8-17.6-0.7-25.9-1.7c-8.3-0.9-16.1-2.4-24.8-2.8c-4.4-0.2-8.8,0-13.3,0.3
			c-0.9,0.1-1.7,0.1-2.5,0.2c0,1,0,2,0.1,3c4.6-0.5,9.4-0.8,14.2-0.8c4.3,0,8.6,0.6,12.8,1.1c8.2,1,16.5,2,25.1,2.5
			c8.9,0.5,17.7,1,26.2,2c-0.1-1-0.2-2-0.2-3C153.4,167.5,149.6,167.4,145.7,167z"/>
		<path fill="#D3D3CB" d="M138.3,171c-6.4-0.6-13-0.8-19.2-1.7c-4.1-0.6-8.3-1-12.4-1.5c-4.1-0.5-8.4-1-12.9-1.1
			c-4.3,0-8.7,0.3-12.9,0.7c-0.5,0.1-1.1,0.1-1.6,0.2c0,1.1,0.1,2.2,0.1,3.1c4.4-0.6,8.9-1,13.8-1.2c4.5-0.2,9,0.2,13.2,0.7
			c8.2,0.9,16.7,1.9,25.3,2.6c4.3,0.3,8.5,0.9,12.6,1.4c4.1,0.5,8.1,1,12,1.7c0.5,0.1,1.1,0.2,1.6,0.3c-0.1-0.9-0.1-1.8-0.2-2.8
			C151.4,172.4,144.8,171.6,138.3,171z"/>
		<path fill="#D3D3CB" d="M127.3,224.7c2.6-1.5,5.3-2.6,8.6-3.4c3.3-0.8,7.4-0.9,11-0.6c5,0.3,9.9,1.4,14.1,2.6
			c-0.1-1-0.2-2.1-0.2-3.1c-0.8-0.2-1.6-0.5-2.5-0.7c-1.9-0.5-4-1-6.1-1.4c-4.3-0.8-8.8-1.5-13.6-1.1c-9.6,0.7-14.7,4.8-20.2,9.6
			c-4.3,3.7-8.4,7.2-14.6,8.7h8.8c2.8-1.7,5.2-3.7,7.6-5.7C122.4,227.9,124.6,226.3,127.3,224.7z"/>
		<path fill="#D3D3CB" d="M151.4,213c-4.1-0.9-8.5-1.8-13.1-1.8c-10.4,0-15.8,3.9-21.2,8.6c-5.4,4.7-10.2,9.7-19.1,10.8
			c-4.6,0.5-9.5,0.3-14.3,0.3c-0.6,0-1.1,0-1.7,0c-0.1,0.9-0.1,1.9-0.2,2.9c2.8,0.1,5.6,0.1,8.5,0.1c2.5,0,4.9,0.2,7.4,0.1
			c9.4-0.6,14.5-5,20-9.8c5.3-4.6,10.6-9.2,20.1-9.6c4.7-0.2,9.2,0.4,13.5,1.2c3.3,0.6,6.5,1.5,9.5,2.4c-0.1-0.9-0.1-1.8-0.2-2.7
			C157.5,214.6,154.5,213.7,151.4,213z"/>
		<path fill="#D3D3CB" d="M92.6,104.6c-0.9-0.8-1.6-1.5-2.3-2.3c-2.9-0.2-5.8-0.5-8.7-0.9c-0.1,0.6-0.3,1.3-0.4,2
			C84.9,103.9,88.7,104.3,92.6,104.6z"/>
		<path fill="#D3D3CB" d="M145.2,227.1c5.9-0.1,11.3,0.8,16.2,1.9c-0.1-1.1-0.2-2.3-0.3-3.4c-2.7-0.7-5.5-1.3-8.6-1.8
			c-4.4-0.7-9.2-1.1-13.7-0.4c-4.5,0.7-7.8,2-10.9,3.8c-3.9,2.3-7.3,5.4-10.9,8h5.9c1.7-1.2,3.3-2.3,5.1-3.4
			C132.4,229.3,138.5,227.2,145.2,227.1z"/>
		<path fill="#D3D3CB" d="M151.1,208.5c-3.9-1.1-8.2-2-12.6-2.3c-9.9-0.7-17,2.2-22.6,6.8c-5.4,4.4-9.9,10-18,11.8
			c-4.2,0.9-9,0.9-14,0.9c-0.6,0-1.1,0-1.7,0c0,0.9,0,1.9-0.1,3c0.3,0,0.6,0,0.9,0c4.9,0,9.8,0.2,14.4-0.4c8.6-1.1,13.5-6.3,18.7-11
			c5.1-4.5,11.6-8.8,21.5-8.3c4.5,0.2,8.8,1,12.9,1.9c3.4,0.8,6.6,1.7,9.8,2.7c-0.1-0.8-0.1-1.6-0.1-2.4
			C157.2,210.3,154.2,209.4,151.1,208.5z"/>
		<path fill="#D3D3CB" d="M104.4,110.4c-2.6-0.6-4.9-1.5-6.9-2.5c-5.3-0.4-10.4-1-15.6-1.8c-0.4-0.1-0.8-0.1-1.2-0.2
			c-0.1,0.6-0.2,1.3-0.3,2C88,109.2,96.1,110.2,104.4,110.4z"/>
		<path fill="#D3D3CB" d="M88.1,99.1c-0.5-0.8-0.9-1.5-1.2-2.2c-1.3-0.1-2.6-0.2-3.8-0.3c-0.2,0-0.3,0.1-0.3,0.1s-0.2,0.7-0.5,2
			C84.2,98.9,86.1,99,88.1,99.1z"/>
		<path fill="#D3D3CB" d="M137.8,201.5c-9.8-1-17.7,1.7-23.7,5.6c-3.1,2-5.5,4.4-8.3,6.5c-2.8,2.2-5.6,4-9.4,5.2
			c-3.9,1.3-8.3,1.3-13.2,1.6c-0.4,0-0.9,0-1.4,0c0,0.6,0.1,1.1,0.2,1.5c0.1,0.5,0.1,1,0.1,1.6c0.2,0,0.4,0,0.6,0
			c4.9,0,9.8,0,13.9-1c1.5-0.4,3-0.8,4.1-1.3c0.4-0.2,0.8-0.4,1.2-0.6c5-2.4,8.2-6.2,12.6-9.6c5.6-4.3,13.1-7.5,22.7-6.8
			c6.7,0.5,12.8,2.2,18.3,3.9c1.5,0.5,3.1,0.9,4.6,1.3c0-0.8-0.1-1.5-0.1-2.2C153,204.8,146,202.3,137.8,201.5z"/>
		<path fill="#D3D3CB" d="M137.1,197.2c-4.8-0.5-9.4-0.4-13.5,0.4c-8.1,1.6-14.1,5.5-19.7,9.6c-2.9,2.1-5.6,4.1-9.2,5.5
			c-3.5,1.3-7.6,2-12.2,2.4c-0.3,0-0.7,0-1,0.1c0,1.2,0.1,2.3,0.1,3.3c4.8-0.1,9.4-0.6,13.4-1.7c7.5-2.3,11.8-7.5,18-11.4
			c6.2-3.9,14.1-6.2,23.6-5.5c4.4,0.3,8.5,1.2,12.4,2.3c3.7,1.1,7.3,2.3,10.9,3.6c0-0.1,0-0.2,0-0.3c0-0.6-0.1-1.2-0.1-1.9
			C152.5,200.7,145.7,198.1,137.1,197.2z"/>
		<path fill="#D3D3CB" d="M136.1,193.2c-9.6-1.1-18.5-0.1-25.2,2.8c-6.7,2.9-11.7,7.6-18.5,10.6c-3.2,1.4-6.9,2.2-10.9,2.8
			c0,1.2,0.1,2.4,0.1,3.5c4.2-0.3,8.2-1,11.6-2.3c3.5-1.3,6.4-3.3,9.3-5.2c5.7-3.9,11.7-8,19.7-9.4c8.5-1.5,18.7-0.2,25.9,1.8
			c3.7,1.1,7.2,2.5,10.8,3.7c0.3,0.1,0.6,0.2,0.9,0.3c0-0.7-0.1-1.5-0.1-2.2c-0.2-0.1-0.4-0.2-0.6-0.2
			C151.9,196.3,144.5,194.1,136.1,193.2z"/>
		<path fill="#D3D3CB" d="M134,185.8c-8.3-1.2-18.4-1.9-26.6-0.7c-4.1,0.6-7.9,1.7-11.1,3.2c-3.2,1.5-5.9,3.5-9.2,5.1
			c-1.9,1-3.9,1.8-6,2.6c0,1.5,0.1,2.9,0.1,4.4c2.5-0.7,4.9-1.5,7.1-2.4c3.4-1.5,6.2-3.4,9.1-5.2c2.9-1.8,6.2-3.2,10.1-4.2
			c7.4-2,17.9-1.8,26.2-0.6c8.6,1.3,16,2.8,23.5,5.2c0.6,0.2,1.2,0.4,1.8,0.6c0-0.7-0.1-1.4-0.2-2.2c-0.6-0.2-1.1-0.4-1.7-0.5
			C150,188.8,142.4,186.9,134,185.8z"/>
		<path fill="#D3D3CB" d="M135,189.4c-4.2-0.6-8.9-0.9-13.5-0.9c-4.5,0.1-9,0.8-12.6,1.9c-7.8,2.3-12.2,6.8-19,9.8
			c-2.7,1.2-5.5,2.1-8.6,2.7c0,1.3,0,2.6,0.1,3.9c3.4-0.6,6.5-1.4,9.3-2.5c1.4-0.6,3.1-1.2,4.3-1.9c0.9-0.5,1.9-1.1,2.9-1.7
			c3.9-2.1,7.1-4.8,11.5-6.6c6.7-2.8,16.4-3.7,25.4-2.6c8.6,1,16.1,3,23.3,5.6c0.5,0.2,0.9,0.3,1.4,0.5c0-0.7-0.1-1.4-0.1-2.2
			c-0.4-0.1-0.7-0.3-1.1-0.4C151,192.5,143.6,190.6,135,189.4z"/>
		<path fill="#D3D3CB" d="M138.6,123c-9.1,0.6-18.5,0.8-27.5,0.2c-8.9-0.6-17.3-1.8-25.3-3.2c-2.2-0.4-4.5-0.8-6.7-1.2
			c0,0.7-0.1,1.3-0.1,2c10.2,1.8,20.4,3.5,31.7,4.3c13.8,1,28.3,0.3,40.2-1.7c5.9-1,11.8-2.3,17.6-3.5c0-0.7,0.1-1.4,0.1-2.1
			c-5.9,1.1-11.8,2.3-17.7,3.4C146.9,121.9,142.8,122.7,138.6,123z"/>
		<path fill="#D3D3CB" d="M128.4,106.5c-1.6,1-3.4,2-5.3,2.7c3.8-0.4,7.5-0.8,11.4-1c8.9-0.5,17.7-0.8,26.2-1.9
			c2.7-0.4,5.3-0.7,7.9-1c0-0.6-0.1-1.2-0.1-1.5c-6.9,0.8-13.8,1.5-21,1.8C141.1,105.8,134.7,106.1,128.4,106.5z"/>
		<path fill="#D3D3CB" d="M135.5,111.5c-8.7,0.6-16.9,2.2-26,2.2c-9-0.1-17.4-1.3-25.6-2.6c-1.3-0.2-2.6-0.4-3.9-0.6
			c-0.1,0.6-0.2,1.2-0.3,1.9c1.6,0.3,3.2,0.5,4.8,0.8c8.1,1.3,16.6,2.5,25.4,2.8c9.1,0.3,17.2-1.3,26-2.1c4.3-0.4,8.6-0.8,12.9-1.2
			c6.7-0.7,13.4-1.7,20-2.7c0-0.6,0-1.2,0-1.8c-2.5,0.3-4.9,0.7-7.4,1C152.8,110.3,144.2,110.9,135.5,111.5z"/>
		<path fill="#D3D3CB" d="M135.2,100.9c-0.7,0.7-1.4,1.4-2.3,2.2c0.1,0,0.1,0,0.2,0c4.5-0.1,9.1-0.2,13.6-0.4
			c4.5-0.2,8.9-0.3,13.3-0.7c0.9-0.1,1.8-0.2,2.7-0.3c-1.8-0.4-3.9-0.9-6-1.4c-3.5,0.2-7,0.3-10.5,0.5
			C142.6,100.9,139,100.8,135.2,100.9z"/>
		<path fill="#D3D3CB" d="M152.4,230.2c-4.3-0.3-9-0.5-13.4,0.5c-4.4,1-8,2.7-11.2,4.6h10.9c0.1,0,0.1,0,0.2-0.1
			c6.8-1.7,14.9-1.2,21.9,0.1h1.2c-0.1-1.2-0.2-2.4-0.3-3.6C158.7,231,155.6,230.5,152.4,230.2z"/>
		<path fill="#D3D3CB" d="M144.9,97.6c-2-0.3-4.4-0.6-6.3-0.7c-0.2,0.3-0.4,0.6-0.6,0.9C140.3,97.7,142.6,97.6,144.9,97.6z"/>
		<path fill="#D3D3CB" d="M136.3,157.5c-9.1,0-17.1-0.7-25.1-1.9c-7.9-1.2-16.1-1.8-25.3-1.8c-2.3,0-4.6,0-6.9,0c0,1,0,1.9,0,2.9
			c1.7-0.1,3.3-0.1,5-0.1c4.5,0,9-0.2,13.2,0.1c8.3,0.6,16,2.2,24.2,2.8c11.2,0.9,23.3,0.4,35,0.2c-0.1-0.9-0.2-1.8-0.2-2.7
			c0,0,0,0-0.1,0C149.7,157.4,143,157.5,136.3,157.5z"/>
		<path fill="#D3D3CB" d="M139.4,132c-9.3,0.3-18.5-0.2-27.6-0.6c-8.9-0.4-17.5-1.7-25.4-3.1c-2.5-0.4-4.9-0.8-7.3-1.3
			c0,0.7,0,1.5,0,2.3c6.5,1.1,13.1,2.2,19.8,3c4.2,0.5,8.6,0.9,13,1.1c9.1,0.4,18.2,1,27.5,0.6c9-0.3,17.1-1.8,25.2-3.2
			c0.8-0.1,1.6-0.3,2.4-0.4c0.2-0.7,0.4-1.4,0.6-2.1c-1,0.2-2.1,0.4-3.1,0.6C156.4,130.3,148.2,131.7,139.4,132z"/>
		<path fill="#D3D3CB" d="M137,117.3c-8.7,1-17.4,1.9-26.6,1.4c-8.9-0.5-17.1-1.7-25.4-3c-1.9-0.3-3.7-0.6-5.6-1
			c-0.1,0.6-0.1,1.3-0.2,1.9c2,0.4,4,0.7,6.1,1.1c7.8,1.3,16.5,2.7,25.1,3.1c9.1,0.4,18.1,0,27-1c10.7-1.2,21-3.2,31.3-5.1
			c0-0.7,0-1.3,0-1.9c-6.4,1-12.7,2.1-19.1,3.1C145.5,116.4,141.3,116.8,137,117.3z"/>
		<path fill="#D3D3CB" d="M125.4,152.9c-4.1-0.3-8.2-0.8-12.2-1.4c-8.2-1.1-16.6-1.6-25.3-1.9c-2.9-0.1-5.9-0.2-8.9-0.2
			c0,1,0,1.9,0,2.9c2.7,0,5.3,0,8,0.1c4.5,0.1,8.8,0.1,13,0.4c4.1,0.2,8.1,0.9,12.1,1.4c12,1.7,25.4,2,38.4,1
			c1.8-0.1,3.6-0.3,5.5-0.4c-0.1-0.9-0.1-1.7-0.2-2.5c-1.5,0.1-2.9,0.2-4.4,0.3C143,153.2,134,153.5,125.4,152.9z"/>
		<path fill="#D3D3CB" d="M111.4,127.4c-11.6-0.8-22-2.6-32.4-4.5c0,0.7,0,1.4,0,2.2c10.4,1.9,20.7,3.6,32.4,4.2
			c9,0.5,18.3,1,27.5,0.4c8.8-0.6,16.9-2,24.9-3.6c1.4-0.3,2.8-0.6,4.2-0.9c0.1-0.7,0.2-1.5,0.3-2.2c-5.5,1.1-10.9,2.3-16.4,3.2
			C139.8,128.4,124.8,128.3,111.4,127.4z"/>
		<path fill="#C1C1B6" d="M138.9,235.2c-0.1,0-0.1,0-0.2,0.1h22.1C153.8,234,145.7,233.5,138.9,235.2z"/>
		<path fill="#C1C1B6" d="M152.4,230.2c3.3,0.3,6.4,0.8,9.3,1.5c-0.1-0.9-0.1-1.8-0.2-2.7c-4.9-1.1-10.3-2-16.2-1.9
			c-6.8,0.1-12.8,2.2-17.2,4.8c-1.8,1-3.4,2.2-5.1,3.4h4.7c3.3-1.9,6.8-3.6,11.2-4.6C143.4,229.7,148,229.9,152.4,230.2z"/>
		<path fill="#C1C1B6" d="M138.9,223.5c4.5-0.7,9.4-0.3,13.7,0.4c3.1,0.5,5.9,1.1,8.6,1.8c-0.1-0.8-0.1-1.6-0.2-2.3
			c-4.3-1.2-9.1-2.3-14.1-2.6c-3.6-0.3-7.7-0.1-11,0.6c-3.3,0.8-6.1,1.9-8.6,3.4c-2.7,1.6-4.9,3.2-7,5c-2.4,2-4.8,4-7.6,5.7h4.4
			c3.6-2.7,7-5.7,10.9-8C131.1,225.4,134.5,224.2,138.9,223.5z"/>
		<path fill="#C1C1B6" d="M138.6,217c4.7-0.4,9.3,0.4,13.6,1.1c2.1,0.4,4.2,0.8,6.1,1.4c0.8,0.2,1.6,0.5,2.5,0.7
			c0-0.7-0.1-1.3-0.1-2c-3-0.9-6.2-1.7-9.5-2.4c-4.3-0.8-8.8-1.4-13.5-1.2c-9.5,0.4-14.8,5-20.1,9.6c-5.4,4.7-10.6,9.2-20,9.8
			c-2.5,0.2-4.9-0.1-7.4-0.1c-2.9,0-5.7-0.1-8.5-0.1c0,0.5-0.1,1-0.1,1.5h22.3c6.2-1.5,10.3-5,14.6-8.7
			C123.9,221.8,129.1,217.7,138.6,217z"/>
		<path fill="#C1C1B6" d="M150.6,211c-4.1-0.9-8.4-1.7-12.9-1.9c-9.9-0.4-16.4,3.8-21.5,8.3c-5.3,4.7-10.2,9.9-18.7,11
			c-4.6,0.6-9.5,0.4-14.4,0.4c-0.3,0-0.6,0-0.9,0c0,0.7-0.1,1.4-0.1,2.1c0.6,0,1.1,0,1.7,0c4.8,0,9.7,0.3,14.3-0.3
			c8.9-1.1,13.7-6.1,19.1-10.8c5.4-4.7,10.8-8.6,21.2-8.6c4.6,0,9,0.9,13.1,1.8c3.1,0.7,6.2,1.6,9.1,2.5c0-0.6-0.1-1.2-0.1-1.9
			C157.2,212.7,154,211.8,150.6,211z"/>
		<path fill="#C1C1B6" d="M155.5,208.2c-5.5-1.7-11.6-3.4-18.3-3.9c-9.5-0.7-17.1,2.5-22.7,6.8c-4.3,3.3-7.5,7.2-12.6,9.6
			c-0.4,0.2-0.8,0.4-1.2,0.6c-1.1,0.5-2.6,0.9-4.1,1.3c-4.1,1-8.9,1-13.9,1c-0.2,0-0.4,0-0.6,0c0,0.7,0,1.4,0,2.2c0.6,0,1.1,0,1.7,0
			c5,0,9.8,0.1,14-0.9c8-1.8,12.6-7.4,18-11.8c5.6-4.6,12.8-7.5,22.6-6.8c4.5,0.3,8.7,1.2,12.6,2.3c3.1,0.9,6.1,1.8,9.1,2.8
			c0-0.6-0.1-1.2-0.1-1.8C158.6,209,157,208.6,155.5,208.2z"/>
		<path fill="#C1C1B6" d="M149,202c-3.8-1.1-7.9-2-12.4-2.3c-9.6-0.7-17.4,1.6-23.6,5.5c-6.1,3.9-10.5,9.2-18,11.4
			c-3.9,1.2-8.5,1.6-13.4,1.7c0,0.8,0.1,1.5,0.1,2.1c0.5,0,0.9,0,1.4,0c4.9-0.2,9.3-0.3,13.2-1.6c3.9-1.2,6.7-3.1,9.4-5.2
			c2.7-2.2,5.2-4.5,8.3-6.5c6-3.9,13.9-6.6,23.7-5.6c8.3,0.8,15.2,3.4,22.2,5.8c0-0.6-0.1-1.2-0.1-1.7
			C156.3,204.3,152.7,203.1,149,202z"/>
		<path fill="#C1C1B6" d="M148,197.7c-7.2-2-17.4-3.2-25.9-1.8c-8,1.4-14,5.5-19.7,9.4c-2.8,2-5.8,4-9.3,5.2
			c-3.4,1.3-7.4,1.9-11.6,2.3c0,0.8,0,1.5,0.1,2.2c0.3,0,0.7,0,1-0.1c4.6-0.4,8.7-1,12.2-2.4c3.6-1.3,6.3-3.4,9.2-5.5
			c5.6-4.1,11.6-8.1,19.7-9.6c4.1-0.8,8.7-0.9,13.5-0.4c8.6,0.9,15.4,3.6,22.6,6.3c0-0.5-0.1-1.1-0.1-1.7c-0.3-0.1-0.6-0.2-0.9-0.3
			C155.2,200.1,151.7,198.7,148,197.7z"/>
		<path fill="#C1C1B6" d="M134.8,191.5c-9-1.1-18.8-0.2-25.4,2.6c-4.3,1.8-7.6,4.5-11.5,6.6c-1,0.5-1.9,1.1-2.9,1.7
			c-1.2,0.7-2.9,1.4-4.3,1.9c-2.8,1.1-6,2-9.3,2.5c0,0.8,0,1.7,0,2.5c4-0.5,7.7-1.4,10.9-2.8c6.9-3,11.8-7.6,18.5-10.6
			c6.7-2.9,15.7-3.9,25.2-2.8c8.5,1,15.9,3.1,22.9,6.1c0.2,0.1,0.4,0.2,0.6,0.2c0-0.6-0.1-1.2-0.1-1.9c-0.5-0.2-0.9-0.4-1.4-0.5
			C150.9,194.5,143.4,192.5,134.8,191.5z"/>
		<path fill="#C1C1B6" d="M133.8,187.9c-8.3-1.2-18.8-1.4-26.2,0.6c-4,1.1-7.2,2.5-10.1,4.2c-2.9,1.8-5.7,3.7-9.1,5.2
			c-2.2,1-4.6,1.8-7.1,2.4c0,0.9,0,1.7,0,2.6c3.1-0.7,5.9-1.6,8.6-2.7c6.8-3,11.2-7.5,19-9.8c3.6-1.1,8-1.8,12.6-1.9
			c4.6-0.1,9.3,0.3,13.5,0.9c8.6,1.2,16,3.1,23.2,5.6c0.4,0.1,0.7,0.3,1.1,0.4c0-0.6-0.1-1.1-0.1-1.7c-0.6-0.2-1.2-0.4-1.8-0.6
			C149.9,190.7,142.4,189.2,133.8,187.9z"/>
		<path fill="#C1C1B6" d="M132.8,184.2c-4.2-0.5-8.7-1.1-12.9-1.1c-4.6-0.1-9-0.3-13.4,0.1c-4.3,0.5-8,1.3-11.5,2.7
			c-3.5,1.4-6.3,3.1-9.4,4.8c-1.4,0.8-2.9,1.5-4.5,2.2c0,1,0,1.9,0.1,2.9c2.1-0.7,4.1-1.6,6-2.6c3.2-1.6,6-3.6,9.2-5.1
			c3.2-1.5,6.9-2.7,11.1-3.2c8.2-1.1,18.2-0.4,26.6,0.7c8.4,1.2,16.1,3.1,23.3,5.2c0.6,0.2,1.1,0.3,1.7,0.5c0-0.6-0.1-1.2-0.1-1.8
			C150.7,187.3,142,185.4,132.8,184.2z"/>
		<path fill="#C1C1B6" d="M132.5,180.7c-4.1-0.6-8.4-0.9-12.7-1.4c-4.4-0.5-8.9-0.8-13.1-0.9c-8.6,0-16.8,1.2-23.8,4.2
			c-0.8,0.3-1.5,0.7-2.2,1c0.1,1.1,0.1,2.3,0.2,3.6c1.1-0.6,2.1-1.1,3.2-1.7c6.4-3.4,14.2-5,22.8-5.4c4.4-0.2,9,0.3,13.5,0.6
			c4.3,0.3,8.6,0.9,12.7,1.4c4.2,0.5,8.3,1.2,12.2,2c4.5,0.9,9,2.1,13.3,3.3c0-0.6-0.1-1.2-0.1-1.9c-0.8-0.2-1.5-0.4-2.3-0.6
			C148.8,183.2,140.8,181.9,132.5,180.7z"/>
		<path fill="#C1C1B6" d="M144,178.5c-4.1-0.5-8.1-1.2-12.3-1.6c-4.3-0.3-8.5-0.8-12.8-1.3c-4.2-0.4-8.5-1.1-12.6-1.4
			c-8.9-0.6-18.2,0.2-26.3,2.1c0,0.1,0,0.2,0.1,0.3c0.1,0.5,0.2,1.2,0.3,2c0.5-0.1,0.9-0.3,1.4-0.4c7.8-2.1,16.5-2.9,25.3-2.4
			c4.3,0.3,8.6,0.8,12.9,1.2c4.3,0.4,8.6,0.9,12.7,1.4c9.1,1.1,17.6,2.7,25.8,4.8c-0.1-0.7-0.1-1.4-0.2-2.1
			c-0.8-0.2-1.7-0.4-2.5-0.6C152,179.8,148,179,144,178.5z"/>
		<path fill="#C1C1B6" d="M144.2,174.3c-4.1-0.5-8.3-1-12.6-1.4c-8.5-0.7-17-1.6-25.3-2.6c-4.2-0.5-8.7-0.9-13.2-0.7
			c-4.8,0.2-9.4,0.6-13.8,1.2c0,0.7,0.1,1.3,0.1,1.9c0.4-0.1,0.8-0.1,1.1-0.2c4.1-0.7,8.5-1.1,12.8-1.3c9-0.4,17.3,1.1,25.6,2.1
			c4.2,0.5,8.5,0.8,12.7,1.3c4.3,0.5,8.5,1,12.5,1.5c4.7,0.6,9.2,1.5,13.7,2.5c-0.1-0.8-0.1-1.6-0.2-2.5c-0.5-0.1-1.1-0.2-1.6-0.3
			C152.3,175.2,148.3,174.7,144.2,174.3z"/>
		<path fill="#C1C1B6" d="M131.2,168.7c-8.5-0.5-16.8-1.5-25.1-2.5c-4.1-0.5-8.5-1.1-12.8-1.1c-4.8,0-9.6,0.3-14.2,0.8
			c0,0.6,0,1.2,0.1,1.7c0.5-0.1,1.1-0.1,1.6-0.2c4.2-0.4,8.6-0.8,12.9-0.7c4.4,0,8.7,0.6,12.9,1.1c4.1,0.5,8.3,0.9,12.4,1.5
			c6.2,0.9,12.7,1.1,19.2,1.7c6.6,0.6,13.1,1.4,19.3,2.4c-0.1-0.9-0.1-1.8-0.2-2.7C148.9,169.8,140.1,169.3,131.2,168.7z"/>
		<path fill="#C1C1B6" d="M132.5,164.4c-8.7-0.4-17-1-25.1-2.2c-4-0.6-8.2-1.1-12.4-1.3c-4.4-0.2-8.8,0.1-13.3,0.3
			c-0.9,0-1.7,0.1-2.6,0.1c0,0.6,0,1.1,0,1.7c0.8-0.1,1.7-0.1,2.5-0.2c4.4-0.3,8.9-0.5,13.3-0.3c8.7,0.4,16.4,1.9,24.8,2.8
			c8.4,0.9,17.3,0.9,25.9,1.7c3.9,0.3,7.7,0.5,11.5,0.8c-0.1-0.9-0.1-1.7-0.2-2.6C148.9,164.7,140.5,164.8,132.5,164.4z"/>
		<path fill="#C1C1B6" d="M121.5,159.5c-8.2-0.6-15.9-2.2-24.2-2.8c-4.3-0.3-8.7-0.1-13.2-0.1c-1.7,0-3.4,0-5,0.1c0,0.6,0,1.1,0,1.7
			c1.3-0.1,2.6-0.2,4-0.2c4.6-0.2,9.2-0.2,13.5,0.1c4.2,0.3,8.2,0.9,12.2,1.4c8,1.2,16.2,2.2,25.1,2.2c4.4,0,8.9,0.2,13.4,0.2
			c3.1,0,6.3,0.1,9.4,0.1c-0.1-0.9-0.1-1.7-0.2-2.5C144.8,160,132.7,160.4,121.5,159.5z"/>
		<path fill="#C1C1B6" d="M112.2,154.1c-4-0.6-8-1.2-12.1-1.4c-4.2-0.2-8.5-0.3-13-0.4c-2.7-0.1-5.4-0.1-8-0.1c0,0.6,0,1.1,0,1.7
			c2.3,0,4.6,0,6.9,0c9.1,0,17.4,0.6,25.3,1.8c8,1.2,16.1,1.9,25.1,1.9c6.6,0,13.4-0.2,19.9-0.4c0,0,0,0,0.1,0
			c-0.1-0.8-0.1-1.6-0.2-2.4c-1.8,0.1-3.6,0.2-5.5,0.4C137.6,156.1,124.2,155.8,112.2,154.1z"/>
		<path fill="#C1C1B6" d="M139.4,151.1c-8.8,0.4-17.5-0.5-25.7-1.4c-8.2-1-16.6-1.2-25.3-1.8c-3.1-0.2-6.2-0.3-9.3-0.4
			c0,0.6,0,1.2,0,1.8c3,0,6,0.1,8.9,0.2c8.6,0.3,17.1,0.8,25.3,1.9c4,0.5,8.1,1.1,12.2,1.4c8.6,0.6,17.6,0.3,26.1-0.4
			c1.5-0.1,2.9-0.2,4.4-0.3c-0.1-0.8-0.1-1.5-0.2-2.2C150.3,150.5,144.9,150.9,139.4,151.1z"/>
		<path fill="#C1C1B6" d="M140.2,146.8c-8.5,0.4-17.3-0.5-25.9-1.3c-4.3-0.4-8.6-0.5-12.9-0.9c-4.2-0.4-8.5-0.7-12.8-1
			c-3.1-0.3-6.3-0.5-9.6-0.8c0,0.6,0,1.2,0,1.8c3.2,0.2,6.4,0.4,9.6,0.7c8.5,0.7,17.1,1,25.5,1.9c8.6,0.9,17.1,1.8,25.9,1.4
			c5.2-0.2,10.4-0.6,15.6-1.1c-0.1-1.1-0.1-1.7-0.1-1.7s0.2-0.2,0.6-0.5C150.8,146,145.6,146.5,140.2,146.8z"/>
		<path fill="#C1C1B6" d="M126.8,142.2c-4.3-0.4-8.8-0.5-13.1-0.8c-4.4-0.3-8.8-0.4-13.1-0.9c-7.2-0.8-14.3-1.5-21.5-2.3
			c0,0.6,0,1.2,0,1.9c3.1,0.3,6.1,0.7,9.1,1c4.2,0.4,8.5,0.8,12.8,1.1c4.3,0.4,8.7,0.6,13,0.9c8.8,0.8,17.6,1.5,26.4,1.3
			c6.2-0.1,12.3-0.8,18.3-1.5c0.8-0.8,1.6-1.7,2.5-2.7C150.2,141.8,138.9,143.2,126.8,142.2z"/>
		<path fill="#C1C1B6" d="M139.6,138.1c-9,0.4-18-0.4-27.1-0.9c-9-0.4-17.5-1.3-25.6-2.4c-2.6-0.3-5.1-0.7-7.7-1.1c0,0.6,0,1.3,0,2
			c2.8,0.4,5.6,0.7,8.4,1.1c4.1,0.6,8.3,1.1,12.6,1.5c4.3,0.4,8.7,0.6,13.2,0.9c9.1,0.5,18.1,1.4,26.9,1.1c8-0.3,15.4-1.3,22.8-2.3
			c0.6-0.8,1.2-1.7,1.8-2.7c-4,0.6-8,1.3-12.1,1.8C148.4,137.6,144.2,137.9,139.6,138.1z"/>
		<path fill="#C1C1B6" d="M139.4,134c-9.3,0.3-18.4-0.2-27.5-0.6c-4.4-0.2-8.8-0.6-13-1.1c-6.8-0.8-13.3-1.9-19.8-3c0,0.7,0,1.3,0,2
			c2.5,0.4,5.1,0.8,7.6,1.2c8.1,1.2,16.6,2.3,25.6,2.7c9.1,0.4,18.2,1.2,27.4,0.9c9.2-0.4,17.7-1.6,26.1-3c0.4-0.9,0.8-1.9,1.2-2.8
			c-0.8,0.1-1.6,0.3-2.4,0.4C156.6,132.2,148.4,133.7,139.4,134z"/>
		<path fill="#C1C1B6" d="M139,129.7c-9.2,0.6-18.5,0-27.5-0.4c-11.7-0.6-22-2.4-32.4-4.2c0,0.6,0,1.3,0,1.9
			c2.4,0.4,4.8,0.8,7.3,1.3c7.9,1.3,16.5,2.7,25.4,3.1c9.1,0.4,18.3,1,27.6,0.6c8.8-0.3,17-1.8,25.1-3.2c1-0.2,2.1-0.4,3.1-0.6
			c0-0.2,0.1-0.4,0.1-0.6c0.1-0.8,0.3-1.6,0.4-2.4c-1.4,0.3-2.8,0.6-4.2,0.9C155.9,127.8,147.8,129.2,139,129.7z"/>
		<path fill="#C1C1B6" d="M110.8,125.1c-11.3-0.8-21.6-2.5-31.7-4.3c0,0.6,0,1.2,0,1.7c0,0.1,0,0.2,0,0.4
			c10.3,1.9,20.7,3.7,32.4,4.5c13.4,0.9,28.4,0.9,40.5-1.1c5.5-0.9,11-2.1,16.4-3.2c0.1-1,0.2-2.1,0.3-3.1
			c-5.9,1.2-11.7,2.4-17.6,3.5C139,125.5,124.6,126.1,110.8,125.1z"/>
		<path fill="#C1C1B6" d="M137.5,119.8c-8.9,1-17.9,1.4-27,1c-8.7-0.4-17.3-1.8-25.1-3.1c-2.1-0.3-4.1-0.7-6.1-1.1
			c-0.1,0.7-0.1,1.5-0.1,2.2c2.2,0.4,4.4,0.8,6.7,1.2c8,1.3,16.4,2.6,25.3,3.2c9,0.6,18.4,0.4,27.5-0.2c4.2-0.3,8.3-1.1,12.4-1.8
			c5.9-1.1,11.8-2.2,17.7-3.4c0-1.1,0.1-2.1,0.1-3.2C158.5,116.6,148.2,118.5,137.5,119.8z"/>
		<path fill="#C1C1B6" d="M135.9,113.8c-8.8,0.8-16.9,2.4-26,2.1c-8.9-0.3-17.3-1.6-25.4-2.8c-1.6-0.2-3.2-0.5-4.8-0.8
			c-0.1,0.8-0.2,1.6-0.3,2.4c1.8,0.3,3.7,0.7,5.6,1c8.3,1.3,16.5,2.5,25.4,3c9.2,0.5,17.8-0.3,26.6-1.4c4.3-0.5,8.5-0.9,12.7-1.5
			c6.5-0.9,12.8-2,19.1-3.1c0-1,0-2,0-2.9c-6.6,1-13.3,2-20,2.7C144.5,113,140.2,113.4,135.9,113.8z"/>
		<path fill="#C1C1B6" d="M134.5,108.3c-3.9,0.2-7.7,0.6-11.4,1c-3.9,1.6-8.5,2.4-13.8,1.9c-1.7-0.2-3.3-0.4-4.8-0.8
			c-8.3-0.3-16.4-1.2-24.1-2.4c-0.1,0.8-0.3,1.6-0.4,2.4c1.3,0.2,2.6,0.4,3.9,0.6c8.2,1.3,16.6,2.5,25.6,2.6
			c9.1,0.1,17.3-1.5,26-2.2c8.8-0.6,17.4-1.2,25.9-2.4c2.5-0.4,4.9-0.7,7.4-1c0-1.1-0.1-2-0.1-2.8c-2.6,0.3-5.3,0.7-7.9,1
			C152.1,107.5,143.4,107.8,134.5,108.3z"/>
		<path fill="#C1C1B6" d="M146.8,102.6c-4.5,0.2-9,0.4-13.6,0.4c-0.1,0-0.1,0-0.2,0c-1.4,1.2-2.9,2.4-4.6,3.5
			c6.3-0.4,12.8-0.7,19.2-1c7.2-0.3,14.1-1,21-1.8c0-0.5-0.1-0.8-0.1-0.8s-2.4-0.6-5.7-1.3c-0.9,0.1-1.8,0.2-2.7,0.3
			C155.7,102.3,151.2,102.4,146.8,102.6z"/>
		<path fill="#C1C1B6" d="M97.5,108c-1.9-1-3.6-2.2-5-3.4c-3.9-0.3-7.7-0.7-11.4-1.2c-0.2,0.8-0.3,1.7-0.5,2.6
			c0.4,0.1,0.8,0.1,1.2,0.2C87.1,106.9,92.2,107.6,97.5,108z"/>
		<path fill="#C1C1B6" d="M90.3,102.3c-0.9-1.1-1.6-2.1-2.2-3.1c-1.9-0.1-3.9-0.3-5.8-0.5c-0.2,0.7-0.4,1.7-0.6,2.7
			C84.5,101.7,87.4,102,90.3,102.3z"/>
		<path fill="#C1C1B6" d="M135.2,100.9c3.7-0.1,7.4,0,11-0.1c3.6-0.1,7-0.3,10.5-0.5c-4.4-1-8.8-2-10.4-2.4
			c-0.4-0.1-0.9-0.2-1.5-0.3c-2.3,0-4.6,0.1-6.9,0.1C137.2,98.7,136.3,99.8,135.2,100.9z"/>
		<path fill="#C1C1B6" d="M86.4,95.9c-1.4,0.3-2.8,0.6-3.4,0.8c1.3,0.1,2.6,0.2,3.8,0.3C86.7,96.6,86.6,96.2,86.4,95.9z"/>
		<path fill="#FFC6C6" d="M143.6,52.9c-0.7-1.3-1.3-5.4-1.9-9.8l-2.2-0.2c0.9,1.4,1.4,3,1.4,4.7c0,4.9-3.8,8.9-8.9,8.9
			c-5.1,0-9.5-2.6-9.5-8.3c0-1.9,0.5-3.6,1.4-5c-0.9-0.7-2.6-2-4.6-2.1c-2.3-0.2-4.8,1.6-5.7,2.3c0.3,0.9,0.5,2,0.7,3.2
			c0.6,6.5-4.5,9.5-9.5,9.5s-9.5-3-9.5-8.3c0-1.7,0.4-3.3,1.1-4.6l-4.8,0.7c-0.1,0.4-0.1,0.9-0.2,1.3c-1,5.7-3.6,6.5-4,9.7
			c-0.2,1.9-0.8,5.3-1.6,8.2c0.4,2.6,0.9,4.1,1.4,6.6c1.2,5.5,2.8,8.7,6,12.8c0,2-0.1,12.1-0.6,12.5c-0.3,0.2-4.2,0.4-6.1,0.9
			c0.1,0.3,0.3,0.7,0.5,1.1c0.3,0.7,0.7,1.4,1.2,2.2c0.6,1,1.3,2.1,2.2,3.1c0.7,0.8,1.4,1.6,2.3,2.3c1.4,1.2,3,2.4,5,3.4
			c2,1,4.2,1.9,6.9,2.5c1.5,0.3,3.1,0.6,4.8,0.8c5.3,0.5,9.8-0.4,13.8-1.9c1.9-0.8,3.7-1.7,5.3-2.7c1.7-1.1,3.3-2.3,4.6-3.5
			c0.8-0.7,1.6-1.5,2.3-2.2c1.1-1.1,2-2.2,2.7-3.1c0.2-0.3,0.5-0.6,0.6-0.9c-1.7-0.1-4.5-0.1-4.5-0.1l-1.3-9.9
			c3.7-3.5,6.4-8.8,9-16.2c1.2-3.4,2-6.6,2.5-9.7c0.4-2.2,0.7-4.2,0.8-6.2C144.6,54.5,144.1,53.8,143.6,52.9z"/>
		<path fill="#FFC6C6" d="M106,38.9c3.2,0,5.7,0.6,7.2,3.4c1.1-0.8,3.8-2.5,6.2-2.3c2.3,0.2,4.2,1.5,5.2,2.3
			c1.8-2.3,4.5-3.7,7.3-3.7c2.6,0,5,1.2,6.7,3.1l3,0.3c-0.3-2.7-0.6-5.4-0.8-7.6c-2-0.9-4.4-2-7.1-3.6c0,2,2.2,5.5,2.2,5.5
			s-5.1,0-7.9-0.2c-2.8-0.2-11.7-1.6-15-4c-0.2,2.4,1.4,5.7,1.4,5.7s-2.4,1.2-9.1-0.2c-5.1-1.1-8.8-3.9-10.2-5.2
			c-0.6,0-0.9,0.1-0.9,0.1c-0.8,0.3-1.6,0.7-2.4,1c0.1,2.6,0.2,6.4-0.1,9.6l5.7-0.8C99.1,40,101.9,38.9,106,38.9z"/>
		<path fill="#F0574A" d="M111.6,30.4c-7,1-14,1.5-16.5,1.7c1.5,1.3,5.1,4.1,10.2,5.2c6.7,1.4,9.1,0.2,9.1,0.2s-1.6-3.2-1.4-5.7
			c3.2,2.4,12.1,3.8,15,4c2.8,0.2,7.9,0.2,7.9,0.2s-2.2-3.4-2.2-5.5c2.7,1.6,5.1,2.8,7.1,3.6c0.2,2.2,0.5,4.9,0.8,7.6l0.7,0.1
			l-0.1,1.2l-0.5,0c0.6,4.4,1.2,8.5,1.9,9.8c0.5,1,1,1.6,1.5,2c1.2,0.9,2.4,0.5,3.4,0.2c-0.2-2.4-1.2-5.9-1.2-5.9l4.2,1.8
			c0,0-1.6-7.3-3.2-11.1c-0.9-2.2-0.9-6.2-0.7-9.1c-0.4,0.1-0.7,0.2-0.7,0.2S120.3,29.2,111.6,30.4z"/>
		<path fill="#560628" d="M95.2,47.8c0,5.3,4.5,8.3,9.5,8.3s10.1-3,9.5-9.5c-0.1-1.3-0.3-2.3-0.7-3.2c0.8-0.6,3.4-2.4,5.7-2.3
			c2,0.1,3.8,1.4,4.6,2.1c-0.8,1.4-1.4,3.1-1.4,5c0,5.7,4.5,8.3,9.5,8.3c5.1,0,8.9-4,8.9-8.9c0-1.7-0.5-3.3-1.4-4.7l2.2,0.2l0.5,0
			l0.1-1.2l-0.7-0.1l-3-0.3c-1.7-1.9-4.1-3.1-6.7-3.1c-2.7,0-5.5,1.4-7.3,3.7c-1-0.8-3-2.1-5.2-2.3c-2.5-0.2-5.1,1.5-6.2,2.3
			c-1.4-2.7-4-3.4-7.2-3.4c-4,0-6.8,1.1-8.6,3l-5.7,0.8c0,0.4-0.1,0.8-0.1,1.2l4.8-0.7C95.6,44.5,95.2,46.1,95.2,47.8z"/>
		<path fill="#F0574A" d="M76.2,70.9c0,0,5.7-1.4,7.5-3.2c0.8-0.8,1.4-2.5,2-4.5c0.8-2.9,1.4-6.3,1.6-8.2c0.4-3.2,3-4,4-9.7
			c0.1-0.4,0.1-0.8,0.2-1.3c0-0.4,0.1-0.8,0.1-1.2c0.3-3.2,0.2-7,0.1-9.6c-6.2,2.6-10.5,5-10.5,5s0,0,0-0.1
			c-1.3,1.6-2.2,3.2-2.6,4.5c-1.2,3.6-1,7.3-1,10.9S75,59.5,75,59.5s2.4,0.8,5.9-1.8c0,1.7-0.1,3.2-0.5,4.6
			C79.2,67.6,76.2,70.9,76.2,70.9z"/>
		<path fill="#00D672" d="M91.8,33.1c0.8-0.3,1.6-0.7,2.4-1c0,0,0,0,0,0S114.6,14.1,137.8,9c-4.6-4.6-11.4-8.3-21.8-8.9
			C85.9-1.7,81.5,36.2,81.3,38c0,0,0,0.1,0,0.1S85.6,35.7,91.8,33.1z"/>
		<path fill="#02C552" d="M94.2,32.1C94.2,32.1,94.2,32.1,94.2,32.1c0,0,0.4,0,0.9-0.1c2.5-0.2,9.5-0.7,16.5-1.7
			c8.7-1.2,35.2,0.6,35.2,0.6s0.2-0.1,0.7-0.2c3-1,15.1-5.1,18.1-9.1c3.5-4.6,2.6-10.8-6.2-13C152.3,7,144.9,7.4,137.8,9
			C114.6,14.1,94.2,32.1,94.2,32.1z"/>
		<path fill="#FFDD14" d="M200.8,167.7c4.8,2.6,10,2.1,12.6,1.4c2.6-0.7,5.3-0.7,5.3-0.7l0.9-2.5c-1.8,0-4.4-0.2-4.9-0.6
			c-0.8-0.7-3.4-1.3-4.9-2.2c-1.5-0.9-13-7.7-19.3-21.9c-6.3-14.2-5.1-22.1-4.8-25.6s1.5-4.5,1.5-4.5l0.8-6.1l-2.4,0.3
			c0,0-0.6,3-0.8,4.3c-0.2,1.3-2.1,2.9-4.5,6.2c-2.4,3.2-1.5,15.9,1.6,26.4S196,165.1,200.8,167.7z"/>
		<path fill="#F0574A" d="M187.2,111.2c0,0-1.1,1-1.5,4.5s-1.6,11.4,4.8,25.6c6.3,14.2,17.9,21,19.3,21.9c1.5,0.9,4.1,1.5,4.9,2.2
			c0.5,0.5,3.1,0.6,4.9,0.6l1-2.9c0,0-1.9-0.3-4.2-2.4c-2.3-2.1-1.8-2.8-5.1-5.5c-3.3-2.7-9-7.5-11.7-14c-2.7-6.5-2.3-12.4-4.1-20.2
			c-1.8-7.8-5.9-10.8-5.9-10.8l1-5.3l-2.7,0.3L187.2,111.2z"/>
		<polygon fill="#00D673" points="207,199.7 206.4,199.2 206.4,199.2 		"/>
		<path fill="#00D673" d="M181.1,206.3c0,0.5,0.4,0.9,0.9,0.9h31.2c0.5,0,0.9-0.4,0.9-0.9V185c0-0.5-0.4-0.9-0.9-0.9H182
			c-0.5,0-0.9,0.4-0.9,0.9v10.7h11.9v-11.5l21,10.5v1h-12.9v11.5l-20.1-10.5V206.3z M204.5,200.6l1.9,0.1l0,0L204.5,200.6l0-0.1
			v-1.2c0-0.1,0.1-0.1,0.1-0.1h1.7l0,0l0.2,0l2,0h0.1l2,0c0.1,0,0.1,0,0.1,0.1v1.3l-2,0l2,0l0,0.1v1.8l0,0l0,0.1l0,0l0,1.3
			c0,0.1,0,0.1-0.1,0.1l-1.8,0l0,0l-0.1,0h-0.1l-2,0l-0.1,0h-1.9c-0.1,0-0.1,0-0.1-0.1v-1.4v-0.1L204.5,200.6z"/>
		<path fill="#00D673" d="M206.4,203.9l0.6-0.7L206.4,203.9z"/>
		<polygon fill="#FFFFFF" points="201.2,207.2 201.2,195.7 214.1,195.7 214.1,194.7 193.1,184.2 193.1,195.7 181.1,195.7 181,195.7 
			181,196.6 181.1,196.7 		"/>
		<polygon fill="#E1A325" points="207.2,200.5 206.5,200.6 206.5,202.4 207.2,202.6 207.2,203.2 206.6,203.9 208.5,204 207.9,203.4 
			207.9,202.6 208.6,202.5 208.6,200.7 207.8,200.5 207.8,199.9 208.5,199.1 206.5,199.1 207.2,199.7 		"/>
		<polygon fill="#E1A325" points="206.4,202.4 206.3,200.6 204.5,200.6 204.5,202.3 		"/>
		<polygon fill="#E1A325" points="210.6,200.7 210.6,200.7 210.6,200.7 208.7,200.7 208.7,202.4 210.6,202.4 210.6,200.7 
			210.6,200.7 		"/>
		<path fill="#E1A325" d="M208.7,202.6l-0.7,0.1l0,0.6l0.7,0.6l1.8,0c0.1,0,0.1,0,0.1-0.1l0-1.3L208.7,202.6L208.7,202.6z"/>
		<path fill="#E1A325" d="M208.7,199.1l-0.7,0.8l0,0.5l0.7,0.2l2,0v-1.3c0-0.1,0-0.1-0.1-0.1l-2,0L208.7,199.1L208.7,199.1z"/>
		<path fill="#E1A325" d="M206.3,200.5l0.7-0.1l0-0.6l-0.7-0.6h0l-0.1,0h-1.7c-0.1,0-0.1,0-0.1,0.1v1.2L206.3,200.5L206.3,200.5z"/>
		<path fill="#E1A325" d="M206.4,203.9L206.4,203.9l0.6-0.7l0-0.5l-0.7-0.2l-2,0v1.4c0,0.1,0,0.1,0.1,0.1L206.4,203.9L206.4,203.9
			L206.4,203.9z"/>
		<polygon fill="#FFFFFF" points="207.8,200.5 208.6,200.7 208.6,202.5 207.9,202.6 207.9,203.4 208.5,204 208.6,204 208.7,204 
			208.7,204 208,203.3 208,202.7 208.7,202.6 208.7,202.6 210.6,202.6 210.6,202.6 210.6,202.4 210.6,202.4 208.7,202.4 
			208.7,200.7 210.6,200.7 210.6,200.7 210.6,200.7 210.6,200.7 210.6,200.7 210.6,200.6 208.6,200.6 208,200.4 207.9,199.9 
			208.7,199.1 208.6,199.1 208.6,199.1 208.5,199.1 207.8,199.9 		"/>
		<polygon fill="#FFFFFF" points="206.4,202.4 204.5,202.3 204.5,202.5 206.4,202.5 207.1,202.7 207.1,203.2 206.4,203.9 
			206.4,203.9 206.5,203.9 206.6,203.9 207.2,203.2 207.2,202.6 206.5,202.4 206.5,200.6 207.2,200.5 207.2,199.7 206.5,199.1 
			206.3,199.1 206.3,199.1 206.4,199.2 207,199.7 207,200.4 206.3,200.5 206.3,200.5 204.5,200.4 204.5,200.6 206.3,200.6 
			206.3,200.6 		"/>
		<path fill="#FFFFFF" d="M255,124c-1.1-2.5-3.3-4.3-6.4-5.3c-2.9-0.9-5.7-0.4-8,1.2c-0.3,0.1-0.5,0.2-0.8,0.3
			c-2.7,1.2-4.5,2.9-5.2,5.1c-0.6,1.6-0.6,3.5,0,5.5v38.8h-0.7c-0.5,0-0.8,0.4-0.8,0.8v4.6c0,0.4,0.3,0.7,0.7,0.8c0,0,0.1,0,0.1,0h2
			c0,0,0.1,0,0.1,0c0.4-0.1,0.7-0.4,0.7-0.8v-4.6c0-0.5-0.4-0.8-0.8-0.8h-0.7v-35c0.7,3.7,3,6.5,6.8,7.9c1.3,0.5,2.5,0.7,3.6,0.7
			c1.2,0,2.4-0.3,3.4-0.8c0.8-0.2,1.7-0.5,2.5-0.9c1.7-0.9,3-2.2,3.9-3.8v8H254c-0.5,0-1,0.4-1,1v4.5v3.9h0.8h4.3h0.8v-4v-4.3
			c0-0.5-0.4-1-1-1H256v-9.4c0.1-0.4,0.3-0.9,0.4-1.4c0.3-1.8,0.2-3.9-0.5-5.9C256,127.2,255.7,125.5,255,124z M248.8,142
			c-1.8,0.4-3.7,0.3-5.4-0.4c-2.7-1.1-5-3.6-7-7.4c-0.3-0.7-0.6-1.3-0.9-2c0-2.1,0.5-4,0.8-5c0.2-0.8,0.5-1.5,0.9-2.2
			c-0.6,1.3-0.9,2.9-0.9,4.6c0,6.5,3.4,10.5,9.1,10.8c0.2,0,0.4,0,0.6,0c2.3,0,4.1-0.7,5.5-2c2.3-2.2,2.7-5.7,2.7-7.6
			c0-2.7-0.5-4.9-1.5-6.6c0.6,0.8,1.1,1.7,1.5,2.4c0.4,0.8,0.8,1.7,1,2.6c-0.1,1.5-0.4,3.2-0.9,5.1
			C253.7,136.5,252.1,140.3,248.8,142z M240.9,120.5c3.8-1.5,6.8-0.7,9,0.9c-1.4-0.8-3.1-1.2-5.1-1.2c-3,0-5.4,1.3-6.8,3.6
			C238.8,122.5,239.8,121.3,240.9,120.5z M253.7,130.8c0,1.8-0.3,5.1-2.5,7.2c-1.4,1.3-3.2,1.9-5.6,1.8c-7.9-0.4-8.6-7.9-8.6-10.2
			c0-5.4,3.1-8.9,7.8-8.9C250.5,120.7,253.7,124.3,253.7,130.8z M237.4,124.8c0,0,0-0.1,0.1-0.1
			C237.4,124.7,237.4,124.8,237.4,124.8z M245.7,118.9c0.9,0,1.8,0.1,2.7,0.4c2.9,0.9,5,2.6,6.1,5c0.4,0.9,0.7,2,0.8,3.1
			c-0.1-0.3-0.3-0.7-0.5-1c-2.7-5.3-6.8-7.8-11.5-7.1C244.1,119,244.9,118.9,245.7,118.9z M235.1,125.6c0.6-1.7,1.9-3.1,3.9-4.2
			c-1.3,1.4-2.4,3.3-3.2,5.7c-0.4,1.2-0.6,2.4-0.8,3.5h0C234.6,128.7,234.6,127,235.1,125.6z M235.7,133.8c0.1,0.2,0.2,0.4,0.3,0.6
			c2,3.9,4.5,6.5,7.3,7.7c0.8,0.3,1.5,0.5,2.3,0.6c-1.1,0-2.2-0.2-3.4-0.7C237.5,140.4,236,137,235.7,133.8z M251.3,141.1
			c-0.1,0.1-0.2,0.1-0.4,0.2c2.2-2,3.5-5,4-6.8c0.2-0.6,0.3-1.2,0.5-1.8v3.6C254.7,138.4,253.3,140,251.3,141.1z"/>
		<path fill="#D3D2CA" d="M235.9,176h-2c0,0-0.1,0-0.1,0v1.6h2.2v-1.6C236,175.9,236,176,235.9,176z"/>
		<rect x="253.8" y="155.1" fill="#D3D2CA" width="4.3" height="1.9"/>
		<path fill="#FFFFFF" d="M254,203.8c-1.2,0-2.4,0.1-3.7,0.4c-1.1,0.2-1.9,0.4-2.7,0.7c-1.6,0.4-3,0.8-5.5,0.9
			c-1.5-0.1-2.9-0.4-3.9-1.4c-1.1-1-1.6-2.7-1.5-5.1c0-1.7,0.5-3.1,1.5-4c1-1,2.5-1.5,4.5-1.6c2.7,0.2,5,1.2,6.8,2
			c0.9,0.4,1.6,0.7,2.3,0.9c0.6,0.2,1.4,0.3,2.3,0.4v-0.7c-0.6-0.1-1.1-0.2-1.5-0.3c-0.5-0.2-1.1-0.5-1.9-0.9
			c-1.7-0.9-3.9-2-6.5-2.1c-0.4,0-0.7,0-1.1,0c0,0-0.1,0-0.1,0c-0.3,0-0.5,0-0.8,0c0,0-0.1,0-0.1,0c-3.7-0.1-6.2,0.6-7.7,2.1
			c-1.1,1-1.6,2.4-1.6,4.2c0,2.4,0.5,4.1,1.7,5.3c1.6,1.5,3.8,1.8,6.3,1.8c0.2,0,0.4,0,0.5,0c0.1,0,0.3,0,0.4,0c0.2,0,0.5,0,0.7,0
			c0.2,0,0.4,0,0.6,0c0.3,0,0.6,0,0.9,0c2.3-0.1,3.6-0.5,5.1-0.9c0.7-0.2,1.4-0.4,2.3-0.6c0.9-0.2,1.8-0.3,2.7-0.3V203.8z
			 M236,199.2c0,2.6,0.5,4.4,1.7,5.5c0.3,0.3,0.6,0.5,0.9,0.7c-0.9-0.2-1.7-0.6-2.4-1.2c-1.1-1.1-1.6-2.7-1.6-5c0-1.6,0.5-3,1.5-3.9
			c0.7-0.6,1.5-1.1,2.6-1.4c-0.4,0.2-0.8,0.5-1.1,0.8C236.6,195.8,236,197.3,236,199.2z M233.3,199.2c0-1.6,0.5-2.9,1.4-3.8
			c0.4-0.4,1-0.8,1.7-1.1c-0.2,0.2-0.5,0.4-0.7,0.6c-1.1,1-1.6,2.5-1.6,4.3c0,2.4,0.5,4.2,1.7,5.4c0.2,0.2,0.4,0.3,0.6,0.5
			c-0.6-0.2-1.1-0.6-1.5-1C233.8,203.1,233.3,201.5,233.3,199.2z"/>
		<path fill="#FFFFFF" d="M275.9,191.9c-0.4,0-0.9,0-1.4,0c-0.6,0-1.2,0-1.8,0c-2.2,0.1-4.4,1.4-6.4,2.5c-1.4,0.8-2.8,1.6-4,1.8
			c-0.1,0-0.3,0.1-0.4,0.1v0.7c0.5,0,1-0.1,1.4-0.2c1.4-0.3,3.1-1.1,4.8-1.9c2.3-1.1,4.6-2.2,6.9-2.4c2.3,0.2,3.8,1.4,4.1,5.6
			c0.2,2.3-0.4,4.2-1.6,5.4c-1,1-2.4,1.6-4.2,1.8c-2.8-0.2-5.6-0.5-8-0.8c-1.2-0.2-2.4-0.3-3.4-0.4v0.7c0.7,0.1,1.4,0.2,2.1,0.3
			c2.2,0.3,4.8,0.7,7.4,0.8c0.5,0,0.9,0,1.4,0c0,0,0,0,0.1,0c0.5,0,0.9,0,1.3,0c3.3,0.1,5.8-0.7,7.4-2.3c1.3-1.4,1.9-3.2,1.7-5.5
			C282.9,192.4,279.8,191.8,275.9,191.9z M278,204c1.4-1.4,1.9-3.4,1.8-5.9c-0.2-3.2-1.2-4.8-2.5-5.5c2.3,0.3,3.8,1.6,4.2,5.6
			c0.2,2.2-0.4,4-1.6,5.2c-0.9,0.9-2,1.5-3.5,1.8C276.9,204.8,277.5,204.4,278,204z M282.8,198.1c0.2,2.1-0.3,3.9-1.5,5.1
			c-0.6,0.6-1.3,1.1-2.2,1.4c0.4-0.3,0.8-0.5,1.1-0.9c1.3-1.4,1.9-3.3,1.7-5.7c-0.2-2.8-1.1-4.4-2.3-5.2
			C281.4,193.4,282.5,194.9,282.8,198.1z"/>
		<path fill="#FFDD14" d="M262,204.2V197v-0.7v-0.3c0-0.5-0.4-0.8-0.8-0.8h-6.4c-0.5,0-0.8,0.4-0.8,0.8v0.2v0.7v6.9v0.6v1
			c0,0.5,0.4,0.8,0.8,0.8h6.4c0.5,0,0.8-0.4,0.8-0.8v-0.5V204.2z"/>
		<path fill="#FFFFFF" d="M340.3,157.2L340.3,157.2c0,0,0.5,0.3,0.8,0.7c0.3,0.4,0.4,0.7,0.4,0.9c0,0,0,0,0,0v7.1
			c0,0.4,0.3,0.6,0.6,0.6c0.4,0,0.6-0.3,0.6-0.6v-7.2c0-0.2,0.1-0.5,0.4-0.9c0.2-0.3,0.6-0.6,0.8-0.6c1.5-0.7,2.6-2.2,2.6-4v-16.6
			c0-2.4-2-4.4-4.4-4.4c-2.4,0-4.4,2-4.4,4.4v16.6C337.8,155,338.8,156.5,340.3,157.2z M339.1,136.6c0-1.7,1.4-3.1,3.1-3.1
			c1.7,0,3.1,1.4,3.1,3.1v16.6c0,1.7-1.4,3.1-3.1,3.1c-1.7,0-3.1-1.4-3.1-3.1V136.6z"/>
		<path fill="#FFC127" d="M299.2,165.3c7.2-1.7,15.3-0.4,19.3,0.4c6.7-7.7,4-19,4-19s-2.1,2.9-5.4,4.1c-5.7,2.2-6,0.7-11.3,0.9
			c-3.6,0.1-7.3,1.9-8-1.5c-0.7-3.1,2.4-6.1,1.5-9.8c-0.9-3.7-5.6-6-9.4-5.2c-9.5,1.9-6.8,10.8-7.5,11.7c-0.7,0.8-3.4,1.3-3.5,1.8
			c-0.1,0.4,0.7,2.7,2,2.9c1.3,0.3,4.2,0,4.2,0s2.2,0.3,2.3,2.8c-1,2.3-6.5,5.7-4.6,12.5c0.7,2.5,1.6,4.4,3.5,5.6
			C288.6,170.2,292.8,166.8,299.2,165.3z"/>
		<path fill="#FFFFFF" d="M318.5,165.6c-3.9-0.8-12-2.1-19.3-0.4c-6.5,1.5-10.6,4.9-12.9,7.2c3.2,2.1,9.2,2.1,21.6-0.9
			C312.9,170.4,316.2,168.2,318.5,165.6z"/>
		<path fill="#F0574A" d="M344.2,202.6c-1.2-0.6-2.5-1.3-4.2-1.3c-1.7,0-4.9,1.1-4.9,1.1s-0.8-0.3-1.6-0.5s-16.3-7.4-16.9-7.7
			c-0.6-0.2-2.2-0.8-2.5-1.9c0.3-3-1.7-5.8-3-6.6c-1.3-0.8-4.6-1.5-6.1-1.6c-1.5-0.1-3.7,1-3.1,1.3c0.6,0.3,4.5,2.6,5.1,3.3
			s1.6,2.3,1,3.3c-0.6,1-2.4,1.2-3.4,1.1c-1-0.1-4.5-1.7-5.6-2.3c-0.4-0.2-0.5-0.1-0.5,0.2c0,0.4,1.5,3.8,3,5.5
			c0.7,0.8,2.6,1.9,4.9,2.4c0.9,0.2,3.7-0.2,4.3-0.5c0.6-0.3,2.2,0,2.8,0.3s18.9,9.8,18.9,9.8s0,1.9,0.3,2.7s1.8,2.9,4.5,4
			c2.8,1.1,6-0.1,6.5-0.2s1.3-0.5,0.8-0.9c-0.5-0.4-4.9-2.9-4.9-2.9s-2.7-1.9-1.9-3.9c0.6-1.3,4.1-0.1,4.1-0.1l5,2.6
			c0.4,0.3,0.5-0.6,0.5-0.6c0-0.7-0.2-2-0.5-3.4S345.4,203.2,344.2,202.6z"/>
	</g>
</g>
<g id="Jump">
</g>
<g id="Canon">
</g>
<g id="Feuilles">
</g>
<g id="Medaille">
</g>
<g id="Baseball">
</g>
<g id="Groupe">
</g>
<g id="Chat">
</g>
<g id="Chewing-gum">
</g>
<g id="Pierre">
</g>
<g id="Banane">
</g>
<g id="Tapis">
</g>
<g id="piscine">
</g>
<g id="game">
</g>
<g id="Layer_15">
</g>
</svg>
