
<svg width="273px" height="171px" viewBox="0 0 273 171" version="1.1" xmlns="http://www.w3.org/2000/svg" xmlns:xlink="http://www.w3.org/1999/xlink">
    <!-- Generator: Sketch 49.1 (51147) - http://www.bohemiancoding.com/sketch -->
    <desc>Created with Sketch.</desc>
    <defs></defs>
    <g id="🚀-UI-kit" stroke="none" stroke-width="1" fill="none" fill-rule="evenodd">
        <g id="E9---Illustration-menium-Spot" transform="translate(-642.000000, -426.000000)">
            <g id="Illustration/mediumSpot/anniversary" transform="translate(573.000000, 401.000000)">
                <g id="Group-15" transform="translate(69.000000, 25.000000)">
                    <g id="Group-14" transform="translate(136.000000, 50.000000)" fill-rule="nonzero">
                        <g id="gift">
                            <path d="M125.770775,52.9700272 L11.5775574,52.9700272 C10.3813149,52.9700272 9.41221374,53.8788197 9.41221374,54.9994964 L9.41221374,117.970531 C9.41221374,119.091459 10.3813149,120 11.5775574,120 L125.771043,120 C126.967286,120 127.936387,119.091208 127.936387,117.970531 L127.936387,54.9997475 C127.936119,53.8785687 126.96675,52.9700272 125.770775,52.9700272 Z" id="Shape" fill="#8100FF"></path>
                            <path d="M125.770775,52.9700272 L11.5775574,52.9700272 C10.3813149,52.9700272 9.41221374,53.8778026 9.41221374,54.9972251 L9.41221374,63.106267 L127.936387,63.106267 L127.936387,54.9972251 C127.936119,53.8775518 126.96675,52.9700272 125.770775,52.9700272 Z" id="Shape" fill="#5500A7"></path>
                            <path d="M79.7526145,52.9700272 L57.595986,52.9700272 C56.3979969,52.9700272 55.4274809,53.8788197 55.4274809,54.9994964 L55.4274809,117.970531 C55.4274809,119.091459 56.3979969,120 57.595986,120 L79.7526145,120 C80.9503353,120 81.9211196,119.091208 81.9211196,117.970531 L81.9211196,54.9997475 C81.9211196,53.8785687 80.9500671,52.9700272 79.7526145,52.9700272 Z" id="Shape" fill="#00D672"></path>
                            <path d="M79.7526145,52.9700272 L57.595986,52.9700272 C56.3979969,52.9700272 55.4274809,53.8817045 55.4274809,55.0059387 L55.4274809,63.106267 L81.9211196,63.106267 L81.9211196,55.0059387 C81.9211196,53.8814527 80.9500671,52.9700272 79.7526145,52.9700272 Z" id="Shape" fill="#0B8F51"></path>
                            <path d="M121.157834,15.376069 C119.039812,10.1763117 115.698054,5.09785948 112.218426,1.79066184 C110.94152,0.57735998 109.222146,-0.0377219036 107.264973,0.00179031229 C100.779713,0.143983956 90.2117757,7.81061219 75.8548031,22.7885104 C75.4962328,23.1622406 75.2977099,23.6482157 75.2977099,24.1520593 L75.2977099,34.9137273 C75.2977099,36.0374346 76.2644069,36.9482289 77.4576818,36.9482289 L110.683681,36.9482289 C118.087009,36.9482289 121.142605,33.5557151 122.401876,30.7095772 C124.081972,26.9156494 123.639771,21.4697587 121.157834,15.376069 Z" id="Shape" fill="#00D672"></path>
                            <path d="M122.38454,18.8891173 C122.324285,18.6798634 122.229104,18.4809462 122.102462,18.3001811 C118.847898,13.6469301 111.815407,15.388023 106.489249,17.6678816 C91.0152085,24.2913962 84.6249916,33.4151163 84.36051,33.8000929 C83.9299275,34.4270981 83.8968673,35.2260445 84.2741269,35.882799 C84.6511198,36.5395536 85.377911,36.9482289 86.1681564,36.9482289 L110.699892,36.9482289 C115.400573,36.9482289 118.886558,35.5837929 121.061066,32.8929901 C123.644294,29.6961963 124.101804,24.8536084 122.38454,18.8891173 Z" id="Shape" fill="#0B8F51"></path>
                            <path d="M61.1457244,22.7883634 C46.7885819,7.81057596 36.2205195,0.144004406 29.7351834,0.00181181368 C27.7729097,-0.0379517784 26.0583249,0.577377225 24.7816713,1.79067012 C21.3022693,5.09759164 17.960205,10.176258 15.8424243,15.3759769 C13.360458,21.4696215 12.9182517,26.9152203 14.5972997,30.7096233 C15.8568528,33.5557401 18.9122178,36.9482289 26.3159001,36.9482289 L59.5422924,36.9482289 C60.7355814,36.9482289 61.7022898,36.0371896 61.7022898,34.9137423 L61.7022898,24.1519023 C61.702557,23.6480623 61.5045661,23.1620908 61.1457244,22.7883634 Z" id="Shape" fill="#00D672"></path>
                            <path d="M52.2910887,33.8002697 C52.0266073,33.4152838 45.6363956,24.2910933 30.1623679,17.6676723 C24.8356807,15.3877592 17.8034617,13.647381 14.5489009,18.2997349 C14.4225257,18.4807564 14.3273444,18.6794262 14.2670896,18.8889372 C12.5492936,24.8535711 13.007337,29.6962749 15.590563,32.892893 C17.7648026,35.5837603 21.2507847,36.9482289 25.9517281,36.9482289 L50.4834437,36.9482289 C51.2736885,36.9482289 52.0004791,36.5395438 52.3774717,35.8827735 C52.7544644,35.2262554 52.7214042,34.4272899 52.2910887,33.8002697 Z" id="Shape" fill="#0B8F51"></path>
                            <path d="M77.3309871,20.2724796 L59.3204124,20.2724796 C58.1326857,20.2724796 57.1704835,21.1745314 57.1704835,22.2868959 L57.1704835,34.9338125 C57.1704835,36.0464262 58.1326857,36.9482289 59.3204124,36.9482289 L77.3309871,36.9482289 C78.5187138,36.9482289 79.480916,36.046177 79.480916,34.9338125 L79.480916,22.2868959 C79.480916,21.1742822 78.5187138,20.2724796 77.3309871,20.2724796 Z" id="Shape" fill="#0B8F51"></path>
                            <path d="M134.836898,33.0245232 L2.16310156,33.0245232 C0.968097656,33.0245232 0,33.9374821 0,35.0632966 L0,55.181935 C0,56.3080017 0.968097656,57.2207084 2.16310156,57.2207084 L134.836898,57.2207084 C136.031902,57.2207084 137,56.3077495 137,55.181935 L137,35.0632966 C137,33.9372299 136.031902,33.0245232 134.836898,33.0245232 Z" id="Shape" fill="#8100FF"></path>
                            <rect id="Rectangle-path" fill="#00D672" x="51.9414758" y="33.0245232" width="33.1170483" height="24.1961853"></rect>
                        </g>
                    </g>
                    <g id="Group-12" fill-rule="nonzero">
                        <path d="M122.60867,71.5090909 L10.9274004,71.5090909 C9.75747203,71.5090909 8.80968858,72.8579888 8.80968858,74.5213812 L8.80968858,167.98771 C8.80968858,169.651475 9.75747203,171 10.9274004,171 L122.608932,171 C123.77886,171 124.726644,169.651102 124.726644,167.98771 L124.726644,74.5217538 C124.726382,72.8576162 123.778336,71.5090909 122.60867,71.5090909 Z" id="Shape" fill="#001CC3"></path>
                        <path d="M122.60867,71.5090909 L10.9274004,71.5090909 C9.75747203,71.5090909 8.80968858,72.8217466 8.80968858,74.440447 L8.80968858,86.1662338 L124.726644,86.1662338 L124.726644,74.440447 C124.726382,72.821384 123.778336,71.5090909 122.60867,71.5090909 Z" id="Shape" fill="#001593"></path>
                        <path d="M78.0892643,71.5090909 L56.3744035,71.5090909 C55.2003004,71.5090909 54.2491349,72.8579888 54.2491349,74.5213812 L54.2491349,167.98771 C54.2491349,169.651475 55.2003004,171 56.3744035,171 L78.0892643,171 C79.2631045,171 80.2145329,169.651102 80.2145329,167.98771 L80.2145329,74.5217538 C80.2145329,72.8576162 79.2628416,71.5090909 78.0892643,71.5090909 Z" id="Shape" fill="#FF5B22"></path>
                        <path d="M78.0892643,71.5090909 L56.3744035,71.5090909 C55.2003004,71.5090909 54.2491349,72.8273889 54.2491349,74.453047 L54.2491349,86.1662338 L80.2145329,86.1662338 L80.2145329,74.453047 C80.2145329,72.8270247 79.2628416,71.5090909 78.0892643,71.5090909 Z" id="Shape" fill="#CB3400"></path>
                        <path d="M118.344846,19.7774754 C116.262606,13.0892854 112.977307,6.55712396 109.556466,2.30323957 C108.301133,0.742629523 106.610808,-0.0485198148 104.6867,0.00230278995 C98.3110073,0.185199425 87.9216123,10.0464033 73.8071968,29.3117313 C73.4546845,29.7924419 73.2595156,30.4175276 73.2595156,31.0655967 L73.2595156,44.9077967 C73.2595156,46.3531657 74.2098804,47.5246753 75.3829953,47.5246753 L108.04765,47.5246753 C115.325901,47.5246753 118.329873,43.161053 119.567869,39.5002069 C121.219581,34.6202657 120.784851,27.6154864 118.344846,19.7774754 Z" id="Shape" fill="#FF5B22"></path>
                        <path d="M119.569097,24.1086492 C119.51094,23.8373239 119.419071,23.5794014 119.296837,23.3450156 C116.155554,17.3114603 109.36784,19.5690175 104.227067,22.5251555 C89.2916251,31.1134182 83.1238299,42.9435276 82.868554,43.4427008 C82.4529586,44.2556959 82.4210492,45.2916355 82.7851776,46.1432046 C83.1490487,46.9947738 83.8505428,47.5246753 84.6132825,47.5246753 L108.291152,47.5246753 C112.828218,47.5246753 116.192868,45.7555037 118.291688,42.266522 C120.785003,38.1214561 121.226589,31.8424006 119.569097,24.1086492 Z" id="Shape" fill="#CB3400"></path>
                        <path d="M60.1933218,29.3115423 C46.0787394,10.0463567 35.6892215,0.185225729 29.3134534,0.00233044612 C27.3843318,-0.0488154913 25.6987144,0.742651705 24.4436296,2.30325021 C21.0230111,6.55677944 17.7374101,13.0892163 15.6554087,19.7773569 C13.2153746,27.6153099 12.7806392,34.6197137 14.4313201,39.5002662 C15.6695934,43.1610852 18.6733388,47.5246753 25.9519379,47.5246753 L58.6169793,47.5246753 C59.7901081,47.5246753 60.7404842,46.3528507 60.7404842,44.9078161 L60.7404842,31.0653947 C60.7407468,30.4173304 60.546101,29.7922493 60.1933218,29.3115423 Z" id="Shape" fill="#FF5B22"></path>
                        <path d="M51.1316382,43.44293 C50.8763625,42.9437449 44.7085723,31.1130254 29.7731427,22.5248842 C24.6318593,19.5686754 17.844408,17.3120449 14.7031273,23.3444369 C14.5811508,23.5791552 14.4892824,23.836757 14.4311249,24.1084157 C12.7731195,31.8423522 13.21522,38.121558 15.7085327,42.2663962 C17.8070945,45.7554613 21.1717414,47.5246753 25.709061,47.5246753 L49.3869112,47.5246753 C50.1496503,47.5246753 50.8511438,46.9947611 51.2150146,46.1431716 C51.5788854,45.291909 51.5469759,44.2559446 51.1316382,43.44293 Z" id="Shape" fill="#CB3400"></path>
                        <path d="M75.7961859,26.2051948 L58.2038141,26.2051948 C57.0436663,26.2051948 56.1038062,27.358443 56.1038062,28.78057 L56.1038062,44.9493002 C56.1038062,46.3717458 57.0436663,47.5246753 58.2038141,47.5246753 L75.7961859,47.5246753 C76.9563337,47.5246753 77.8961938,46.3714272 77.8961938,44.9493002 L77.8961938,28.78057 C77.8961938,27.3581244 76.9563337,26.2051948 75.7961859,26.2051948 Z" id="Shape" fill="#CB3400"></path>
                        <path d="M131.884266,41.3064935 L2.11573438,41.3064935 C0.946898438,41.3064935 0,42.6639463 0,44.337888 L0,74.2517223 C0,75.9260391 0.946898438,77.2831169 2.11573438,77.2831169 L131.884266,77.2831169 C133.053102,77.2831169 134,75.9256641 134,74.2517223 L134,44.337888 C134,42.6635713 133.053102,41.3064935 131.884266,41.3064935 Z" id="Shape" fill="#001CC3"></path>
                        <rect id="Rectangle-path" fill="#FF5B22" x="50.0761246" y="41.3064935" width="32.4567474" height="35.9766234"></rect>
                    </g>
                </g>
            </g>
        </g>
    </g>
</svg>